<?xml version="1.0" encoding="utf-8" standalone="no"?>
<!DOCTYPE svg PUBLIC "-//W3C//DTD SVG 1.1//EN"
  "http://www.w3.org/Graphics/SVG/1.1/DTD/svg11.dtd">
<svg xmlns:xlink="http://www.w3.org/1999/xlink" width="756pt" height="619.2pt" viewBox="0 0 756 619.2" xmlns="http://www.w3.org/2000/svg" version="1.1">
 <metadata>
  <rdf:RDF xmlns:dc="http://purl.org/dc/elements/1.1/" xmlns:cc="http://creativecommons.org/ns#" xmlns:rdf="http://www.w3.org/1999/02/22-rdf-syntax-ns#">
   <cc:Work>
    <dc:type rdf:resource="http://purl.org/dc/dcmitype/StillImage"/>
    <dc:date>2026-09-27T17:38:54.312902</dc:date>
    <dc:format>image/svg+xml</dc:format>
    <dc:creator>
     <cc:Agent>
      <dc:title>Matplotlib v3.11.2, https://matplotlib.org/</dc:title>
     </cc:Agent>
    </dc:creator>
   </cc:Work>
  </rdf:RDF>
 </metadata>
 <defs>
  <style type="text/css">*{stroke-linejoin: round; stroke-linecap: butt}</style>
 </defs>
 <g id="figure_1">
  <g id="patch_1">
   <path d="M 0 619.2 
L 756 619.2 
L 756 0 
L 0 0 
z
" style="fill: #ffffff"/>
  </g>
  <g id="axes_1">
   <g id="patch_2">
    <path d="M 61.34293 269.058535 
L 742.5 269.058535 
L 742.5 29.58 
L 61.34293 29.58 
z
" style="fill: #ffffff"/>
   </g>
   <g id="matplotlib.axis_1">
    <g id="xtick_1">
     <g id="line2d_1">
      <defs>
       <path id="mb6876d8263" d="M 0 0 
L 0 3.5 
" style="stroke: #000000; stroke-width: 0.8"/>
      </defs>
      <g>
       <use xlink:href="#mb6876d8263" x="61.34293" y="269.058535" style="stroke: #000000; stroke-width: 0.8"/>
      </g>
     </g>
     <g id="text_1">
      <!-- 0 -->
      <g transform="translate(57.366367 285.555605) scale(0.125 -0.125)">
       <defs>
        <path id="DejaVuSans-13" d="M 2034 4250 
Q 1547 4250 1301 3770 
Q 1056 3291 1056 2328 
Q 1056 1369 1301 889 
Q 1547 409 2034 409 
Q 2525 409 2770 889 
Q 3016 1369 3016 2328 
Q 3016 3291 2770 3770 
Q 2525 4250 2034 4250 
z
M 2034 4750 
Q 2819 4750 3233 4129 
Q 3647 3509 3647 2328 
Q 3647 1150 3233 529 
Q 2819 -91 2034 -91 
Q 1250 -91 836 529 
Q 422 1150 422 2328 
Q 422 3509 836 4129 
Q 1250 4750 2034 4750 
z
" transform="scale(0.015625)"/>
       </defs>
       <use xlink:href="#DejaVuSans-13"/>
      </g>
     </g>
    </g>
    <g id="xtick_2">
     <g id="line2d_2">
      <g>
       <use xlink:href="#mb6876d8263" x="175.248794" y="269.058535" style="stroke: #000000; stroke-width: 0.8"/>
      </g>
     </g>
     <g id="text_2">
      <!-- 50 -->
      <g transform="translate(167.295669 285.555605) scale(0.125 -0.125)">
       <defs>
        <path id="DejaVuSans-18" d="M 691 4666 
L 3169 4666 
L 3169 4134 
L 1269 4134 
L 1269 2991 
Q 1406 3038 1543 3061 
Q 1681 3084 1819 3084 
Q 2600 3084 3056 2656 
Q 3513 2228 3513 1497 
Q 3513 744 3044 326 
Q 2575 -91 1722 -91 
Q 1428 -91 1123 -41 
Q 819 9 494 109 
L 494 744 
Q 775 591 1075 516 
Q 1375 441 1709 441 
Q 2250 441 2565 725 
Q 2881 1009 2881 1497 
Q 2881 1984 2565 2268 
Q 2250 2553 1709 2553 
Q 1456 2553 1204 2497 
Q 953 2441 691 2322 
L 691 4666 
z
" transform="scale(0.015625)"/>
       </defs>
       <use xlink:href="#DejaVuSans-18"/>
       <use xlink:href="#DejaVuSans-13" transform="translate(63.625 0)"/>
      </g>
     </g>
    </g>
    <g id="xtick_3">
     <g id="line2d_3">
      <g>
       <use xlink:href="#mb6876d8263" x="289.154659" y="269.058535" style="stroke: #000000; stroke-width: 0.8"/>
      </g>
     </g>
     <g id="text_3">
      <!-- 100 -->
      <g transform="translate(277.224971 285.555605) scale(0.125 -0.125)">
       <defs>
        <path id="DejaVuSans-14" d="M 794 531 
L 1825 531 
L 1825 4091 
L 703 3866 
L 703 4441 
L 1819 4666 
L 2450 4666 
L 2450 531 
L 3481 531 
L 3481 0 
L 794 0 
L 794 531 
z
" transform="scale(0.015625)"/>
       </defs>
       <use xlink:href="#DejaVuSans-14"/>
       <use xlink:href="#DejaVuSans-13" transform="translate(63.625 0)"/>
       <use xlink:href="#DejaVuSans-13" transform="translate(127.25 0)"/>
      </g>
     </g>
    </g>
    <g id="xtick_4">
     <g id="line2d_4">
      <g>
       <use xlink:href="#mb6876d8263" x="403.060523" y="269.058535" style="stroke: #000000; stroke-width: 0.8"/>
      </g>
     </g>
     <g id="text_4">
      <!-- 150 -->
      <g transform="translate(391.130836 285.555605) scale(0.125 -0.125)">
       <use xlink:href="#DejaVuSans-14"/>
       <use xlink:href="#DejaVuSans-18" transform="translate(63.625 0)"/>
       <use xlink:href="#DejaVuSans-13" transform="translate(127.25 0)"/>
      </g>
     </g>
    </g>
    <g id="xtick_5">
     <g id="line2d_5">
      <g>
       <use xlink:href="#mb6876d8263" x="516.966388" y="269.058535" style="stroke: #000000; stroke-width: 0.8"/>
      </g>
     </g>
     <g id="text_5">
      <!-- 200 -->
      <g transform="translate(505.036701 285.555605) scale(0.125 -0.125)">
       <defs>
        <path id="DejaVuSans-15" d="M 1228 531 
L 3431 531 
L 3431 0 
L 469 0 
L 469 531 
Q 828 903 1448 1529 
Q 2069 2156 2228 2338 
Q 2531 2678 2651 2914 
Q 2772 3150 2772 3378 
Q 2772 3750 2511 3984 
Q 2250 4219 1831 4219 
Q 1534 4219 1204 4116 
Q 875 4013 500 3803 
L 500 4441 
Q 881 4594 1212 4672 
Q 1544 4750 1819 4750 
Q 2544 4750 2975 4387 
Q 3406 4025 3406 3419 
Q 3406 3131 3298 2873 
Q 3191 2616 2906 2266 
Q 2828 2175 2409 1742 
Q 1991 1309 1228 531 
z
" transform="scale(0.015625)"/>
       </defs>
       <use xlink:href="#DejaVuSans-15"/>
       <use xlink:href="#DejaVuSans-13" transform="translate(63.625 0)"/>
       <use xlink:href="#DejaVuSans-13" transform="translate(127.25 0)"/>
      </g>
     </g>
    </g>
    <g id="xtick_6">
     <g id="line2d_6">
      <g>
       <use xlink:href="#mb6876d8263" x="630.872253" y="269.058535" style="stroke: #000000; stroke-width: 0.8"/>
      </g>
     </g>
     <g id="text_6">
      <!-- 250 -->
      <g transform="translate(618.942565 285.555605) scale(0.125 -0.125)">
       <use xlink:href="#DejaVuSans-15"/>
       <use xlink:href="#DejaVuSans-18" transform="translate(63.625 0)"/>
       <use xlink:href="#DejaVuSans-13" transform="translate(127.25 0)"/>
      </g>
     </g>
    </g>
   </g>
   <g id="matplotlib.axis_2">
    <g id="ytick_1">
     <g id="line2d_7">
      <defs>
       <path id="m26f00cc98e" d="M 0 0 
L -3.5 0 
" style="stroke: #000000; stroke-width: 0.8"/>
      </defs>
      <g>
       <use xlink:href="#m26f00cc98e" x="61.34293" y="262.406354" style="stroke: #000000; stroke-width: 0.8"/>
      </g>
     </g>
     <g id="text_7">
      <!-- 40 -->
      <g transform="translate(38.43668 267.154889) scale(0.125 -0.125)">
       <defs>
        <path id="DejaVuSans-17" d="M 2419 4116 
L 825 1625 
L 2419 1625 
L 2419 4116 
z
M 2253 4666 
L 3047 4666 
L 3047 1625 
L 3713 1625 
L 3713 1100 
L 3047 1100 
L 3047 0 
L 2419 0 
L 2419 1100 
L 313 1100 
L 313 1709 
L 2253 4666 
z
" transform="scale(0.015625)"/>
       </defs>
       <use xlink:href="#DejaVuSans-17"/>
       <use xlink:href="#DejaVuSans-13" transform="translate(63.625 0)"/>
      </g>
     </g>
    </g>
    <g id="ytick_2">
     <g id="line2d_8">
      <g>
       <use xlink:href="#m26f00cc98e" x="61.34293" y="235.797627" style="stroke: #000000; stroke-width: 0.8"/>
      </g>
     </g>
     <g id="text_8">
      <!-- 60 -->
      <g transform="translate(38.43668 240.546163) scale(0.125 -0.125)">
       <defs>
        <path id="DejaVuSans-19" d="M 2113 2584 
Q 1688 2584 1439 2293 
Q 1191 2003 1191 1497 
Q 1191 994 1439 701 
Q 1688 409 2113 409 
Q 2538 409 2786 701 
Q 3034 994 3034 1497 
Q 3034 2003 2786 2293 
Q 2538 2584 2113 2584 
z
M 3366 4563 
L 3366 3988 
Q 3128 4100 2886 4159 
Q 2644 4219 2406 4219 
Q 1781 4219 1451 3797 
Q 1122 3375 1075 2522 
Q 1259 2794 1537 2939 
Q 1816 3084 2150 3084 
Q 2853 3084 3261 2657 
Q 3669 2231 3669 1497 
Q 3669 778 3244 343 
Q 2819 -91 2113 -91 
Q 1303 -91 875 529 
Q 447 1150 447 2328 
Q 447 3434 972 4092 
Q 1497 4750 2381 4750 
Q 2619 4750 2861 4703 
Q 3103 4656 3366 4563 
z
" transform="scale(0.015625)"/>
       </defs>
       <use xlink:href="#DejaVuSans-19"/>
       <use xlink:href="#DejaVuSans-13" transform="translate(63.625 0)"/>
      </g>
     </g>
    </g>
    <g id="ytick_3">
     <g id="line2d_9">
      <g>
       <use xlink:href="#m26f00cc98e" x="61.34293" y="209.188901" style="stroke: #000000; stroke-width: 0.8"/>
      </g>
     </g>
     <g id="text_9">
      <!-- 80 -->
      <g transform="translate(38.43668 213.937437) scale(0.125 -0.125)">
       <defs>
        <path id="DejaVuSans-1b" d="M 2034 2216 
Q 1584 2216 1326 1975 
Q 1069 1734 1069 1313 
Q 1069 891 1326 650 
Q 1584 409 2034 409 
Q 2484 409 2743 651 
Q 3003 894 3003 1313 
Q 3003 1734 2745 1975 
Q 2488 2216 2034 2216 
z
M 1403 2484 
Q 997 2584 770 2862 
Q 544 3141 544 3541 
Q 544 4100 942 4425 
Q 1341 4750 2034 4750 
Q 2731 4750 3128 4425 
Q 3525 4100 3525 3541 
Q 3525 3141 3298 2862 
Q 3072 2584 2669 2484 
Q 3125 2378 3379 2068 
Q 3634 1759 3634 1313 
Q 3634 634 3220 271 
Q 2806 -91 2034 -91 
Q 1263 -91 848 271 
Q 434 634 434 1313 
Q 434 1759 690 2068 
Q 947 2378 1403 2484 
z
M 1172 3481 
Q 1172 3119 1398 2916 
Q 1625 2713 2034 2713 
Q 2441 2713 2670 2916 
Q 2900 3119 2900 3481 
Q 2900 3844 2670 4047 
Q 2441 4250 2034 4250 
Q 1625 4250 1398 4047 
Q 1172 3844 1172 3481 
z
" transform="scale(0.015625)"/>
       </defs>
       <use xlink:href="#DejaVuSans-1b"/>
       <use xlink:href="#DejaVuSans-13" transform="translate(63.625 0)"/>
      </g>
     </g>
    </g>
    <g id="ytick_4">
     <g id="line2d_10">
      <g>
       <use xlink:href="#m26f00cc98e" x="61.34293" y="182.580175" style="stroke: #000000; stroke-width: 0.8"/>
      </g>
     </g>
     <g id="text_10">
      <!-- 100 -->
      <g transform="translate(30.483555 187.32871) scale(0.125 -0.125)">
       <use xlink:href="#DejaVuSans-14"/>
       <use xlink:href="#DejaVuSans-13" transform="translate(63.625 0)"/>
       <use xlink:href="#DejaVuSans-13" transform="translate(127.25 0)"/>
      </g>
     </g>
    </g>
    <g id="ytick_5">
     <g id="line2d_11">
      <g>
       <use xlink:href="#m26f00cc98e" x="61.34293" y="155.971449" style="stroke: #000000; stroke-width: 0.8"/>
      </g>
     </g>
     <g id="text_11">
      <!-- 120 -->
      <g transform="translate(30.483555 160.719984) scale(0.125 -0.125)">
       <use xlink:href="#DejaVuSans-14"/>
       <use xlink:href="#DejaVuSans-15" transform="translate(63.625 0)"/>
       <use xlink:href="#DejaVuSans-13" transform="translate(127.25 0)"/>
      </g>
     </g>
    </g>
    <g id="ytick_6">
     <g id="line2d_12">
      <g>
       <use xlink:href="#m26f00cc98e" x="61.34293" y="129.362723" style="stroke: #000000; stroke-width: 0.8"/>
      </g>
     </g>
     <g id="text_12">
      <!-- 140 -->
      <g transform="translate(30.483555 134.111258) scale(0.125 -0.125)">
       <use xlink:href="#DejaVuSans-14"/>
       <use xlink:href="#DejaVuSans-17" transform="translate(63.625 0)"/>
       <use xlink:href="#DejaVuSans-13" transform="translate(127.25 0)"/>
      </g>
     </g>
    </g>
    <g id="ytick_7">
     <g id="line2d_13">
      <g>
       <use xlink:href="#m26f00cc98e" x="61.34293" y="102.753997" style="stroke: #000000; stroke-width: 0.8"/>
      </g>
     </g>
     <g id="text_13">
      <!-- 160 -->
      <g transform="translate(30.483555 107.502532) scale(0.125 -0.125)">
       <use xlink:href="#DejaVuSans-14"/>
       <use xlink:href="#DejaVuSans-19" transform="translate(63.625 0)"/>
       <use xlink:href="#DejaVuSans-13" transform="translate(127.25 0)"/>
      </g>
     </g>
    </g>
    <g id="ytick_8">
     <g id="line2d_14">
      <g>
       <use xlink:href="#m26f00cc98e" x="61.34293" y="76.145271" style="stroke: #000000; stroke-width: 0.8"/>
      </g>
     </g>
     <g id="text_14">
      <!-- 180 -->
      <g transform="translate(30.483555 80.893806) scale(0.125 -0.125)">
       <use xlink:href="#DejaVuSans-14"/>
       <use xlink:href="#DejaVuSans-1b" transform="translate(63.625 0)"/>
       <use xlink:href="#DejaVuSans-13" transform="translate(127.25 0)"/>
      </g>
     </g>
    </g>
    <g id="ytick_9">
     <g id="line2d_15">
      <g>
       <use xlink:href="#m26f00cc98e" x="61.34293" y="49.536545" style="stroke: #000000; stroke-width: 0.8"/>
      </g>
     </g>
     <g id="text_15">
      <!-- 200 -->
      <g transform="translate(30.483555 54.28508) scale(0.125 -0.125)">
       <use xlink:href="#DejaVuSans-15"/>
       <use xlink:href="#DejaVuSans-13" transform="translate(63.625 0)"/>
       <use xlink:href="#DejaVuSans-13" transform="translate(127.25 0)"/>
      </g>
     </g>
    </g>
    <g id="text_16">
     <!-- Độ sáng Y -->
     <g transform="translate(23.480625 180.790947) rotate(-90) scale(0.125 -0.125)">
      <defs>
       <path id="DejaVuSans-d2" d="M 659 4666 
L 1959 4666 
Q 3313 4666 3947 4102 
Q 4581 3538 4581 2338 
Q 4581 1131 3945 565 
Q 3309 0 1959 0 
L 659 0 
L 659 2188 
L 31 2188 
L 31 2638 
L 659 2638 
L 659 4666 
z
M 1294 4147 
L 1294 2638 
L 2344 2638 
L 2344 2188 
L 1294 2188 
L 1294 519 
L 2053 519 
Q 3019 519 3467 956 
Q 3916 1394 3916 2338 
Q 3916 3275 3467 3711 
Q 3019 4147 2053 4147 
L 1294 4147 
z
" transform="scale(0.015625)"/>
       <path id="DejaVuSans-9d6" d="M 1665 -441 
L 2240 -441 
L 2240 -1172 
L 1665 -1172 
L 1665 -441 
z
M 1959 3097 
Q 1497 3097 1228 2736 
Q 959 2375 959 1747 
Q 959 1119 1226 758 
Q 1494 397 1959 397 
Q 2419 397 2687 759 
Q 2956 1122 2956 1747 
Q 2956 2369 2687 2733 
Q 2419 3097 1959 3097 
z
M 1959 3584 
Q 2709 3584 3137 3096 
Q 3566 2609 3566 1747 
Q 3566 888 3137 398 
Q 2709 -91 1959 -91 
Q 1206 -91 779 398 
Q 353 888 353 1747 
Q 353 2609 779 3096 
Q 1206 3584 1959 3584 
z
M 1665 -441 
L 2240 -441 
L 2240 -1172 
L 1665 -1172 
L 1665 -441 
z
M 1728 5119 
L 2190 5119 
L 2956 3944 
L 2522 3944 
L 1959 4709 
L 1397 3944 
L 962 3944 
L 1728 5119 
z
" transform="scale(0.015625)"/>
       <path id="DejaVuSans-3" transform="scale(0.015625)"/>
       <path id="DejaVuSans-56" d="M 2834 3397 
L 2834 2853 
Q 2591 2978 2328 3040 
Q 2066 3103 1784 3103 
Q 1356 3103 1142 2972 
Q 928 2841 928 2578 
Q 928 2378 1081 2264 
Q 1234 2150 1697 2047 
L 1894 2003 
Q 2506 1872 2764 1633 
Q 3022 1394 3022 966 
Q 3022 478 2636 193 
Q 2250 -91 1575 -91 
Q 1294 -91 989 -36 
Q 684 19 347 128 
L 347 722 
Q 666 556 975 473 
Q 1284 391 1588 391 
Q 1994 391 2212 530 
Q 2431 669 2431 922 
Q 2431 1156 2273 1281 
Q 2116 1406 1581 1522 
L 1381 1569 
Q 847 1681 609 1914 
Q 372 2147 372 2553 
Q 372 3047 722 3315 
Q 1072 3584 1716 3584 
Q 2034 3584 2315 3537 
Q 2597 3491 2834 3397 
z
" transform="scale(0.015625)"/>
       <path id="DejaVuSans-a3" d="M 2194 1759 
Q 1497 1759 1228 1600 
Q 959 1441 959 1056 
Q 959 750 1161 570 
Q 1363 391 1709 391 
Q 2188 391 2477 730 
Q 2766 1069 2766 1631 
L 2766 1759 
L 2194 1759 
z
M 3341 1997 
L 3341 0 
L 2766 0 
L 2766 531 
Q 2569 213 2275 61 
Q 1981 -91 1556 -91 
Q 1019 -91 701 211 
Q 384 513 384 1019 
Q 384 1609 779 1909 
Q 1175 2209 1959 2209 
L 2766 2209 
L 2766 2266 
Q 2766 2663 2505 2880 
Q 2244 3097 1772 3097 
Q 1472 3097 1187 3025 
Q 903 2953 641 2809 
L 641 3341 
Q 956 3463 1253 3523 
Q 1550 3584 1831 3584 
Q 2591 3584 2966 3190 
Q 3341 2797 3341 1997 
z
M 2290 5119 
L 2912 5119 
L 1894 3944 
L 1415 3944 
L 2290 5119 
z
" transform="scale(0.015625)"/>
       <path id="DejaVuSans-51" d="M 3513 2113 
L 3513 0 
L 2938 0 
L 2938 2094 
Q 2938 2591 2744 2837 
Q 2550 3084 2163 3084 
Q 1697 3084 1428 2787 
Q 1159 2491 1159 1978 
L 1159 0 
L 581 0 
L 581 3500 
L 1159 3500 
L 1159 2956 
Q 1366 3272 1645 3428 
Q 1925 3584 2291 3584 
Q 2894 3584 3203 3211 
Q 3513 2838 3513 2113 
z
" transform="scale(0.015625)"/>
       <path id="DejaVuSans-4a" d="M 2906 1791 
Q 2906 2416 2648 2759 
Q 2391 3103 1925 3103 
Q 1463 3103 1205 2759 
Q 947 2416 947 1791 
Q 947 1169 1205 825 
Q 1463 481 1925 481 
Q 2391 481 2648 825 
Q 2906 1169 2906 1791 
z
M 3481 434 
Q 3481 -459 3084 -895 
Q 2688 -1331 1869 -1331 
Q 1566 -1331 1297 -1286 
Q 1028 -1241 775 -1147 
L 775 -588 
Q 1028 -725 1275 -790 
Q 1522 -856 1778 -856 
Q 2344 -856 2625 -561 
Q 2906 -266 2906 331 
L 2906 616 
Q 2728 306 2450 153 
Q 2172 0 1784 0 
Q 1141 0 747 490 
Q 353 981 353 1791 
Q 353 2603 747 3093 
Q 1141 3584 1784 3584 
Q 2172 3584 2450 3431 
Q 2728 3278 2906 2969 
L 2906 3500 
L 3481 3500 
L 3481 434 
z
" transform="scale(0.015625)"/>
       <path id="DejaVuSans-3c" d="M -13 4666 
L 666 4666 
L 1959 2747 
L 3244 4666 
L 3922 4666 
L 2272 2222 
L 2272 0 
L 1638 0 
L 1638 2222 
L -13 4666 
z
" transform="scale(0.015625)"/>
      </defs>
      <use xlink:href="#DejaVuSans-d2"/>
      <use xlink:href="#DejaVuSans-9d6" transform="translate(77.484375 0)"/>
      <use xlink:href="#DejaVuSans-3" transform="translate(138.671875 0)"/>
      <use xlink:href="#DejaVuSans-56" transform="translate(170.453125 0)"/>
      <use xlink:href="#DejaVuSans-a3" transform="translate(222.546875 0)"/>
      <use xlink:href="#DejaVuSans-51" transform="translate(283.828125 0)"/>
      <use xlink:href="#DejaVuSans-4a" transform="translate(347.203125 0)"/>
      <use xlink:href="#DejaVuSans-3" transform="translate(410.6875 0)"/>
      <use xlink:href="#DejaVuSans-3c" transform="translate(442.46875 0)"/>
     </g>
    </g>
   </g>
   <g id="line2d_16">
    <path d="M 61.34293 249.101991 
L 536.330385 249.101991 
L 536.330385 49.536545 
L 581.892731 49.536545 
L 581.892731 249.101991 
L 742.5 249.101991 
L 742.5 249.101991 
" clip-path="url(#p9dc8bb543b)" style="fill: none; stroke: #0b0b0b; stroke-width: 1.6; stroke-linecap: square"/>
   </g>
   <g id="line2d_17">
    <path d="M 61.34293 249.101991 
L 475.960277 249.017781 
L 485.072746 248.835848 
L 491.907098 248.471133 
L 496.463332 247.980466 
L 498.74145 247.606625 
L 501.019567 247.10817 
L 503.297684 246.443563 
L 505.575802 245.55742 
L 507.853919 244.375897 
L 510.132036 242.800532 
L 512.410154 240.700046 
L 514.688271 237.899398 
L 516.966388 234.1652 
L 519.244505 229.18627 
L 521.522623 222.547696 
L 523.80074 213.696265 
L 526.078857 201.894356 
L 528.356975 186.158478 
L 530.635092 165.177308 
L 532.913209 137.202413 
L 535.191326 99.902554 
L 537.469444 50.169409 
L 542.025678 50.661637 
L 544.303796 51.036667 
L 546.581913 51.536708 
L 548.86003 52.20343 
L 551.138147 53.092391 
L 553.416265 54.277674 
L 555.694382 55.85805 
L 557.972499 57.965218 
L 560.250617 60.774776 
L 562.528734 64.520853 
L 564.806851 69.515623 
L 567.084969 76.175316 
L 569.363086 85.054906 
L 571.641203 96.89436 
L 573.91932 112.680299 
L 576.197438 133.728217 
L 578.475555 161.792108 
L 580.753672 199.210629 
L 583.03179 249.101991 
L 742.5 249.101991 
L 742.5 249.101991 
" clip-path="url(#p9dc8bb543b)" style="fill: none; stroke: #eb6834; stroke-width: 2.4; stroke-linecap: square"/>
   </g>
   <g id="patch_3">
    <path d="M 61.34293 269.058535 
L 61.34293 29.58 
" style="fill: none; stroke: #000000; stroke-width: 0.8; stroke-linejoin: miter; stroke-linecap: square"/>
   </g>
   <g id="patch_4">
    <path d="M 742.5 269.058535 
L 742.5 29.58 
" style="fill: none; stroke: #000000; stroke-width: 0.8; stroke-linejoin: miter; stroke-linecap: square"/>
   </g>
   <g id="patch_5">
    <path d="M 61.34293 269.058535 
L 742.5 269.058535 
" style="fill: none; stroke: #000000; stroke-width: 0.8; stroke-linejoin: miter; stroke-linecap: square"/>
   </g>
   <g id="patch_6">
    <path d="M 61.34293 29.58 
L 742.5 29.58 
" style="fill: none; stroke: #000000; stroke-width: 0.8; stroke-linejoin: miter; stroke-linecap: square"/>
   </g>
   <g id="text_17">
    <!-- (a) Vật chậm, v = 1 px/khung: các vị trí cũ chồng lên nhau → nhòe (motion blur) -->
    <g transform="translate(61.34293 23.58) scale(0.125 -0.125)">
     <defs>
      <path id="DejaVuSans-b" d="M 1984 4856 
Q 1566 4138 1362 3434 
Q 1159 2731 1159 2009 
Q 1159 1288 1364 580 
Q 1569 -128 1984 -844 
L 1484 -844 
Q 1016 -109 783 600 
Q 550 1309 550 2009 
Q 550 2706 781 3412 
Q 1013 4119 1484 4856 
L 1984 4856 
z
" transform="scale(0.015625)"/>
      <path id="DejaVuSans-44" d="M 2194 1759 
Q 1497 1759 1228 1600 
Q 959 1441 959 1056 
Q 959 750 1161 570 
Q 1363 391 1709 391 
Q 2188 391 2477 730 
Q 2766 1069 2766 1631 
L 2766 1759 
L 2194 1759 
z
M 3341 1997 
L 3341 0 
L 2766 0 
L 2766 531 
Q 2569 213 2275 61 
Q 1981 -91 1556 -91 
Q 1019 -91 701 211 
Q 384 513 384 1019 
Q 384 1609 779 1909 
Q 1175 2209 1959 2209 
L 2766 2209 
L 2766 2266 
Q 2766 2663 2505 2880 
Q 2244 3097 1772 3097 
Q 1472 3097 1187 3025 
Q 903 2953 641 2809 
L 641 3341 
Q 956 3463 1253 3523 
Q 1550 3584 1831 3584 
Q 2591 3584 2966 3190 
Q 3341 2797 3341 1997 
z
" transform="scale(0.015625)"/>
      <path id="DejaVuSans-c" d="M 513 4856 
L 1013 4856 
Q 1481 4119 1714 3412 
Q 1947 2706 1947 2009 
Q 1947 1309 1714 600 
Q 1481 -109 1013 -844 
L 513 -844 
Q 928 -128 1133 580 
Q 1338 1288 1338 2009 
Q 1338 2731 1133 3434 
Q 928 4138 513 4856 
z
" transform="scale(0.015625)"/>
      <path id="DejaVuSans-39" d="M 1831 0 
L 50 4666 
L 709 4666 
L 2188 738 
L 3669 4666 
L 4325 4666 
L 2547 0 
L 1831 0 
z
" transform="scale(0.015625)"/>
      <path id="DejaVuSans-9aa" d="M 2194 1759 
Q 1497 1759 1228 1600 
Q 959 1441 959 1056 
Q 959 750 1161 570 
Q 1363 391 1709 391 
Q 2188 391 2477 730 
Q 2766 1069 2766 1631 
L 2766 1759 
L 2194 1759 
z
M 3341 1997 
L 3341 0 
L 2766 0 
L 2766 531 
Q 2569 213 2275 61 
Q 1981 -91 1556 -91 
Q 1019 -91 701 211 
Q 384 513 384 1019 
Q 384 1609 779 1909 
Q 1175 2209 1959 2209 
L 2766 2209 
L 2766 2266 
Q 2766 2663 2505 2880 
Q 2244 3097 1772 3097 
Q 1472 3097 1187 3025 
Q 903 2953 641 2809 
L 641 3341 
Q 956 3463 1253 3523 
Q 1550 3584 1831 3584 
Q 2591 3584 2966 3190 
Q 3341 2797 3341 1997 
z
M 1625 5119 
L 2087 5119 
L 2853 3944 
L 2419 3944 
L 1856 4709 
L 1294 3944 
L 859 3944 
L 1625 5119 
z
M 1412 -441 
L 1987 -441 
L 1987 -1172 
L 1412 -1172 
L 1412 -441 
z
" transform="scale(0.015625)"/>
      <path id="DejaVuSans-57" d="M 1172 4494 
L 1172 3500 
L 2356 3500 
L 2356 3053 
L 1172 3053 
L 1172 1153 
Q 1172 725 1289 603 
Q 1406 481 1766 481 
L 2356 481 
L 2356 0 
L 1766 0 
Q 1100 0 847 248 
Q 594 497 594 1153 
L 594 3053 
L 172 3053 
L 172 3500 
L 594 3500 
L 594 4494 
L 1172 4494 
z
" transform="scale(0.015625)"/>
      <path id="DejaVuSans-46" d="M 3122 3366 
L 3122 2828 
Q 2878 2963 2633 3030 
Q 2388 3097 2138 3097 
Q 1578 3097 1268 2742 
Q 959 2388 959 1747 
Q 959 1106 1268 751 
Q 1578 397 2138 397 
Q 2388 397 2633 464 
Q 2878 531 3122 666 
L 3122 134 
Q 2881 22 2623 -34 
Q 2366 -91 2075 -91 
Q 1284 -91 818 406 
Q 353 903 353 1747 
Q 353 2603 823 3093 
Q 1294 3584 2113 3584 
Q 2378 3584 2631 3529 
Q 2884 3475 3122 3366 
z
" transform="scale(0.015625)"/>
      <path id="DejaVuSans-4b" d="M 3513 2113 
L 3513 0 
L 2938 0 
L 2938 2094 
Q 2938 2591 2744 2837 
Q 2550 3084 2163 3084 
Q 1697 3084 1428 2787 
Q 1159 2491 1159 1978 
L 1159 0 
L 581 0 
L 581 4863 
L 1159 4863 
L 1159 2956 
Q 1366 3272 1645 3428 
Q 1925 3584 2291 3584 
Q 2894 3584 3203 3211 
Q 3513 2838 3513 2113 
z
" transform="scale(0.015625)"/>
      <path id="DejaVuSans-50" d="M 3328 2828 
Q 3544 3216 3844 3400 
Q 4144 3584 4550 3584 
Q 5097 3584 5394 3201 
Q 5691 2819 5691 2113 
L 5691 0 
L 5113 0 
L 5113 2094 
Q 5113 2597 4934 2840 
Q 4756 3084 4391 3084 
Q 3944 3084 3684 2787 
Q 3425 2491 3425 1978 
L 3425 0 
L 2847 0 
L 2847 2094 
Q 2847 2600 2669 2842 
Q 2491 3084 2119 3084 
Q 1678 3084 1418 2786 
Q 1159 2488 1159 1978 
L 1159 0 
L 581 0 
L 581 3500 
L 1159 3500 
L 1159 2956 
Q 1356 3278 1631 3431 
Q 1906 3584 2284 3584 
Q 2666 3584 2933 3390 
Q 3200 3197 3328 2828 
z
" transform="scale(0.015625)"/>
      <path id="DejaVuSans-f" d="M 750 794 
L 1409 794 
L 1409 256 
L 897 -744 
L 494 -744 
L 750 256 
L 750 794 
z
" transform="scale(0.015625)"/>
      <path id="DejaVuSans-59" d="M 191 3500 
L 800 3500 
L 1894 563 
L 2988 3500 
L 3597 3500 
L 2284 0 
L 1503 0 
L 191 3500 
z
" transform="scale(0.015625)"/>
      <path id="DejaVuSans-20" d="M 678 2906 
L 4684 2906 
L 4684 2381 
L 678 2381 
L 678 2906 
z
M 678 1631 
L 4684 1631 
L 4684 1100 
L 678 1100 
L 678 1631 
z
" transform="scale(0.015625)"/>
      <path id="DejaVuSans-53" d="M 1159 525 
L 1159 -1331 
L 581 -1331 
L 581 3500 
L 1159 3500 
L 1159 2969 
Q 1341 3281 1617 3432 
Q 1894 3584 2278 3584 
Q 2916 3584 3314 3078 
Q 3713 2572 3713 1747 
Q 3713 922 3314 415 
Q 2916 -91 2278 -91 
Q 1894 -91 1617 61 
Q 1341 213 1159 525 
z
M 3116 1747 
Q 3116 2381 2855 2742 
Q 2594 3103 2138 3103 
Q 1681 3103 1420 2742 
Q 1159 2381 1159 1747 
Q 1159 1113 1420 752 
Q 1681 391 2138 391 
Q 2594 391 2855 752 
Q 3116 1113 3116 1747 
z
" transform="scale(0.015625)"/>
      <path id="DejaVuSans-5b" d="M 3513 3500 
L 2247 1797 
L 3578 0 
L 2900 0 
L 1881 1375 
L 863 0 
L 184 0 
L 1544 1831 
L 300 3500 
L 978 3500 
L 1906 2253 
L 2834 3500 
L 3513 3500 
z
" transform="scale(0.015625)"/>
      <path id="DejaVuSans-12" d="M 1625 4666 
L 2156 4666 
L 531 -594 
L 0 -594 
L 1625 4666 
z
" transform="scale(0.015625)"/>
      <path id="DejaVuSans-4e" d="M 581 4863 
L 1159 4863 
L 1159 1991 
L 2875 3500 
L 3609 3500 
L 1753 1863 
L 3688 0 
L 2938 0 
L 1159 1709 
L 1159 0 
L 581 0 
L 581 4863 
z
" transform="scale(0.015625)"/>
      <path id="DejaVuSans-58" d="M 544 1381 
L 544 3500 
L 1119 3500 
L 1119 1403 
Q 1119 906 1312 657 
Q 1506 409 1894 409 
Q 2359 409 2629 706 
Q 2900 1003 2900 1516 
L 2900 3500 
L 3475 3500 
L 3475 0 
L 2900 0 
L 2900 538 
Q 2691 219 2414 64 
Q 2138 -91 1772 -91 
Q 1169 -91 856 284 
Q 544 659 544 1381 
z
M 1991 3584 
L 1991 3584 
z
" transform="scale(0.015625)"/>
      <path id="DejaVuSans-1d" d="M 750 794 
L 1409 794 
L 1409 0 
L 750 0 
L 750 794 
z
M 750 3309 
L 1409 3309 
L 1409 2516 
L 750 2516 
L 750 3309 
z
" transform="scale(0.015625)"/>
      <path id="DejaVuSans-9c8" d="M 603 3500 
L 1178 3500 
L 1178 0 
L 603 0 
L 603 3500 
z
M 603 4863 
L 1178 4863 
L 1178 4134 
L 603 4134 
L 603 4863 
z
M 597 -441 
L 1172 -441 
L 1172 -1172 
L 597 -1172 
L 597 -441 
z
" transform="scale(0.015625)"/>
      <path id="DejaVuSans-55" d="M 2631 2963 
Q 2534 3019 2420 3045 
Q 2306 3072 2169 3072 
Q 1681 3072 1420 2755 
Q 1159 2438 1159 1844 
L 1159 0 
L 581 0 
L 581 3500 
L 1159 3500 
L 1159 2956 
Q 1341 3275 1631 3429 
Q 1922 3584 2338 3584 
Q 2397 3584 2469 3576 
Q 2541 3569 2628 3553 
L 2631 2963 
z
" transform="scale(0.015625)"/>
      <path id="DejaVuSans-af" d="M 1325 5119 
L 1947 5119 
L 929 3944 
L 450 3944 
L 1325 5119 
z
M 603 3500 
L 1178 3500 
L 1178 0 
L 603 0 
L 603 3500 
z
M 891 3584 
L 891 3584 
z
" transform="scale(0.015625)"/>
      <path id="DejaVuSans-12b" d="M 1997 4281 
L 1818 4453 
Q 1750 4516 1698 4545 
Q 1647 4575 1606 4575 
Q 1487 4575 1431 4461 
Q 1375 4347 1368 4091 
L 978 4091 
Q 984 4513 1143 4742 
Q 1303 4972 1587 4972 
Q 1706 4972 1806 4928 
Q 1906 4884 2022 4781 
L 2200 4609 
Q 2268 4547 2320 4517 
Q 2372 4488 2412 4488 
Q 2531 4488 2587 4602 
Q 2643 4716 2650 4972 
L 3040 4972 
Q 3034 4550 2874 4320 
Q 2715 4091 2431 4091 
Q 2312 4091 2212 4134 
Q 2112 4178 1997 4281 
z
M 544 1381 
L 544 3500 
L 1119 3500 
L 1119 1403 
Q 1119 906 1312 657 
Q 1506 409 1894 409 
Q 2359 409 2629 706 
Q 2900 1003 2900 1516 
L 2900 3500 
L 3475 3500 
L 3475 0 
L 2900 0 
L 2900 538 
Q 2691 219 2414 64 
Q 2138 -91 1772 -91 
Q 1169 -91 856 284 
Q 544 659 544 1381 
z
M 1991 3584 
L 1991 3584 
z
" transform="scale(0.015625)"/>
      <path id="DejaVuSans-9d0" d="M 2694 5419 
L 3306 4594 
L 2828 4594 
L 2109 5419 
L 2694 5419 
z
M 1660 4778 
L 2248 4778 
L 2907 3947 
L 2473 3947 
L 1954 4503 
L 1435 3947 
L 1001 3947 
L 1660 4778 
z
M 1959 3097 
Q 1497 3097 1228 2736 
Q 959 2375 959 1747 
Q 959 1119 1226 758 
Q 1494 397 1959 397 
Q 2419 397 2687 759 
Q 2956 1122 2956 1747 
Q 2956 2369 2687 2733 
Q 2419 3097 1959 3097 
z
M 1959 3584 
Q 2709 3584 3137 3096 
Q 3566 2609 3566 1747 
Q 3566 888 3137 398 
Q 2709 -91 1959 -91 
Q 1206 -91 779 398 
Q 353 888 353 1747 
Q 353 2609 779 3096 
Q 1206 3584 1959 3584 
z
" transform="scale(0.015625)"/>
      <path id="DejaVuSans-4f" d="M 603 4863 
L 1178 4863 
L 1178 0 
L 603 0 
L 603 4863 
z
" transform="scale(0.015625)"/>
      <path id="DejaVuSans-ac" d="M 3597 1894 
L 3597 1613 
L 953 1613 
Q 991 1019 1311 708 
Q 1631 397 2203 397 
Q 2534 397 2845 478 
Q 3156 559 3463 722 
L 3463 178 
Q 3153 47 2828 -22 
Q 2503 -91 2169 -91 
Q 1331 -91 842 396 
Q 353 884 353 1716 
Q 353 2575 817 3079 
Q 1281 3584 2069 3584 
Q 2775 3584 3186 3129 
Q 3597 2675 3597 1894 
z
M 3022 2063 
Q 3016 2534 2758 2815 
Q 2500 3097 2075 3097 
Q 1594 3097 1305 2825 
Q 1016 2553 972 2059 
L 3022 2063 
z
M 1803 5119 
L 2265 5119 
L 3031 3944 
L 2597 3944 
L 2034 4709 
L 1472 3944 
L 1037 3944 
L 1803 5119 
z
" transform="scale(0.015625)"/>
      <path id="DejaVuSans-c1c" d="M 5050 2147 
L 5050 1866 
L 3822 638 
L 3447 1013 
L 4175 1741 
L 366 1741 
L 366 2272 
L 4175 2272 
L 3447 3000 
L 3822 3375 
L 5050 2147 
z
" transform="scale(0.015625)"/>
      <path id="DejaVuSans-b4" d="M 1959 3097 
Q 1497 3097 1228 2736 
Q 959 2375 959 1747 
Q 959 1119 1226 758 
Q 1494 397 1959 397 
Q 2419 397 2687 759 
Q 2956 1122 2956 1747 
Q 2956 2369 2687 2733 
Q 2419 3097 1959 3097 
z
M 1959 3584 
Q 2709 3584 3137 3096 
Q 3566 2609 3566 1747 
Q 3566 888 3137 398 
Q 2709 -91 1959 -91 
Q 1206 -91 779 398 
Q 353 888 353 1747 
Q 353 2609 779 3096 
Q 1206 3584 1959 3584 
z
M 1506 5119 
L 2387 3950 
L 1909 3950 
L 890 5119 
L 1506 5119 
z
" transform="scale(0.015625)"/>
      <path id="DejaVuSans-48" d="M 3597 1894 
L 3597 1613 
L 953 1613 
Q 991 1019 1311 708 
Q 1631 397 2203 397 
Q 2534 397 2845 478 
Q 3156 559 3463 722 
L 3463 178 
Q 3153 47 2828 -22 
Q 2503 -91 2169 -91 
Q 1331 -91 842 396 
Q 353 884 353 1716 
Q 353 2575 817 3079 
Q 1281 3584 2069 3584 
Q 2775 3584 3186 3129 
Q 3597 2675 3597 1894 
z
M 3022 2063 
Q 3016 2534 2758 2815 
Q 2500 3097 2075 3097 
Q 1594 3097 1305 2825 
Q 1016 2553 972 2059 
L 3022 2063 
z
" transform="scale(0.015625)"/>
      <path id="DejaVuSans-52" d="M 1959 3097 
Q 1497 3097 1228 2736 
Q 959 2375 959 1747 
Q 959 1119 1226 758 
Q 1494 397 1959 397 
Q 2419 397 2687 759 
Q 2956 1122 2956 1747 
Q 2956 2369 2687 2733 
Q 2419 3097 1959 3097 
z
M 1959 3584 
Q 2709 3584 3137 3096 
Q 3566 2609 3566 1747 
Q 3566 888 3137 398 
Q 2709 -91 1959 -91 
Q 1206 -91 779 398 
Q 353 888 353 1747 
Q 353 2609 779 3096 
Q 1206 3584 1959 3584 
z
" transform="scale(0.015625)"/>
      <path id="DejaVuSans-4c" d="M 603 3500 
L 1178 3500 
L 1178 0 
L 603 0 
L 603 3500 
z
M 603 4863 
L 1178 4863 
L 1178 4134 
L 603 4134 
L 603 4863 
z
" transform="scale(0.015625)"/>
      <path id="DejaVuSans-45" d="M 3116 1747 
Q 3116 2381 2855 2742 
Q 2594 3103 2138 3103 
Q 1681 3103 1420 2742 
Q 1159 2381 1159 1747 
Q 1159 1113 1420 752 
Q 1681 391 2138 391 
Q 2594 391 2855 752 
Q 3116 1113 3116 1747 
z
M 1159 2969 
Q 1341 3281 1617 3432 
Q 1894 3584 2278 3584 
Q 2916 3584 3314 3078 
Q 3713 2572 3713 1747 
Q 3713 922 3314 415 
Q 2916 -91 2278 -91 
Q 1894 -91 1617 61 
Q 1341 213 1159 525 
L 1159 0 
L 581 0 
L 581 4863 
L 1159 4863 
L 1159 2969 
z
" transform="scale(0.015625)"/>
     </defs>
     <use xlink:href="#DejaVuSans-b"/>
     <use xlink:href="#DejaVuSans-44" transform="translate(39.015625 0)"/>
     <use xlink:href="#DejaVuSans-c" transform="translate(100.296875 0)"/>
     <use xlink:href="#DejaVuSans-3" transform="translate(139.3125 0)"/>
     <use xlink:href="#DejaVuSans-39" transform="translate(171.09375 0)"/>
     <use xlink:href="#DejaVuSans-9aa" transform="translate(239.5 0)"/>
     <use xlink:href="#DejaVuSans-57" transform="translate(300.78125 0)"/>
     <use xlink:href="#DejaVuSans-3" transform="translate(339.984375 0)"/>
     <use xlink:href="#DejaVuSans-46" transform="translate(371.765625 0)"/>
     <use xlink:href="#DejaVuSans-4b" transform="translate(426.75 0)"/>
     <use xlink:href="#DejaVuSans-9aa" transform="translate(490.125 0)"/>
     <use xlink:href="#DejaVuSans-50" transform="translate(551.40625 0)"/>
     <use xlink:href="#DejaVuSans-f" transform="translate(648.8125 0)"/>
     <use xlink:href="#DejaVuSans-3" transform="translate(680.59375 0)"/>
     <use xlink:href="#DejaVuSans-59" transform="translate(712.375 0)"/>
     <use xlink:href="#DejaVuSans-3" transform="translate(771.5625 0)"/>
     <use xlink:href="#DejaVuSans-20" transform="translate(803.34375 0)"/>
     <use xlink:href="#DejaVuSans-3" transform="translate(887.140625 0)"/>
     <use xlink:href="#DejaVuSans-14" transform="translate(918.921875 0)"/>
     <use xlink:href="#DejaVuSans-3" transform="translate(982.546875 0)"/>
     <use xlink:href="#DejaVuSans-53" transform="translate(1014.328125 0)"/>
     <use xlink:href="#DejaVuSans-5b" transform="translate(1077.8125 0)"/>
     <use xlink:href="#DejaVuSans-12" transform="translate(1137 0)"/>
     <use xlink:href="#DejaVuSans-4e" transform="translate(1170.6875 0)"/>
     <use xlink:href="#DejaVuSans-4b" transform="translate(1228.59375 0)"/>
     <use xlink:href="#DejaVuSans-58" transform="translate(1291.96875 0)"/>
     <use xlink:href="#DejaVuSans-51" transform="translate(1355.34375 0)"/>
     <use xlink:href="#DejaVuSans-4a" transform="translate(1418.71875 0)"/>
     <use xlink:href="#DejaVuSans-1d" transform="translate(1482.203125 0)"/>
     <use xlink:href="#DejaVuSans-3" transform="translate(1515.890625 0)"/>
     <use xlink:href="#DejaVuSans-46" transform="translate(1547.671875 0)"/>
     <use xlink:href="#DejaVuSans-a3" transform="translate(1602.65625 0)"/>
     <use xlink:href="#DejaVuSans-46" transform="translate(1663.9375 0)"/>
     <use xlink:href="#DejaVuSans-3" transform="translate(1718.921875 0)"/>
     <use xlink:href="#DejaVuSans-59" transform="translate(1750.703125 0)"/>
     <use xlink:href="#DejaVuSans-9c8" transform="translate(1809.890625 0)"/>
     <use xlink:href="#DejaVuSans-3" transform="translate(1837.671875 0)"/>
     <use xlink:href="#DejaVuSans-57" transform="translate(1869.453125 0)"/>
     <use xlink:href="#DejaVuSans-55" transform="translate(1908.65625 0)"/>
     <use xlink:href="#DejaVuSans-af" transform="translate(1949.765625 0)"/>
     <use xlink:href="#DejaVuSans-3" transform="translate(1977.546875 0)"/>
     <use xlink:href="#DejaVuSans-46" transform="translate(2009.328125 0)"/>
     <use xlink:href="#DejaVuSans-12b" transform="translate(2064.3125 0)"/>
     <use xlink:href="#DejaVuSans-3" transform="translate(2127.6875 0)"/>
     <use xlink:href="#DejaVuSans-46" transform="translate(2159.46875 0)"/>
     <use xlink:href="#DejaVuSans-4b" transform="translate(2214.453125 0)"/>
     <use xlink:href="#DejaVuSans-9d0" transform="translate(2277.828125 0)"/>
     <use xlink:href="#DejaVuSans-51" transform="translate(2339.015625 0)"/>
     <use xlink:href="#DejaVuSans-4a" transform="translate(2402.390625 0)"/>
     <use xlink:href="#DejaVuSans-3" transform="translate(2465.875 0)"/>
     <use xlink:href="#DejaVuSans-4f" transform="translate(2497.65625 0)"/>
     <use xlink:href="#DejaVuSans-ac" transform="translate(2525.4375 0)"/>
     <use xlink:href="#DejaVuSans-51" transform="translate(2586.96875 0)"/>
     <use xlink:href="#DejaVuSans-3" transform="translate(2650.34375 0)"/>
     <use xlink:href="#DejaVuSans-51" transform="translate(2682.125 0)"/>
     <use xlink:href="#DejaVuSans-4b" transform="translate(2745.5 0)"/>
     <use xlink:href="#DejaVuSans-44" transform="translate(2808.875 0)"/>
     <use xlink:href="#DejaVuSans-58" transform="translate(2870.15625 0)"/>
     <use xlink:href="#DejaVuSans-3" transform="translate(2933.53125 0)"/>
     <use xlink:href="#DejaVuSans-c1c" transform="translate(2965.3125 0)"/>
     <use xlink:href="#DejaVuSans-3" transform="translate(3049.109375 0)"/>
     <use xlink:href="#DejaVuSans-51" transform="translate(3080.890625 0)"/>
     <use xlink:href="#DejaVuSans-4b" transform="translate(3144.265625 0)"/>
     <use xlink:href="#DejaVuSans-b4" transform="translate(3207.640625 0)"/>
     <use xlink:href="#DejaVuSans-48" transform="translate(3268.828125 0)"/>
     <use xlink:href="#DejaVuSans-3" transform="translate(3330.359375 0)"/>
     <use xlink:href="#DejaVuSans-b" transform="translate(3362.140625 0)"/>
     <use xlink:href="#DejaVuSans-50" transform="translate(3401.15625 0)"/>
     <use xlink:href="#DejaVuSans-52" transform="translate(3498.5625 0)"/>
     <use xlink:href="#DejaVuSans-57" transform="translate(3559.75 0)"/>
     <use xlink:href="#DejaVuSans-4c" transform="translate(3598.953125 0)"/>
     <use xlink:href="#DejaVuSans-52" transform="translate(3626.734375 0)"/>
     <use xlink:href="#DejaVuSans-51" transform="translate(3687.921875 0)"/>
     <use xlink:href="#DejaVuSans-3" transform="translate(3751.296875 0)"/>
     <use xlink:href="#DejaVuSans-45" transform="translate(3783.078125 0)"/>
     <use xlink:href="#DejaVuSans-4f" transform="translate(3846.5625 0)"/>
     <use xlink:href="#DejaVuSans-58" transform="translate(3874.34375 0)"/>
     <use xlink:href="#DejaVuSans-55" transform="translate(3937.71875 0)"/>
     <use xlink:href="#DejaVuSans-c" transform="translate(3978.828125 0)"/>
    </g>
   </g>
   <g id="legend_1">
    <g id="line2d_18">
     <path d="M 71.24293 44.54 
L 76.74293 44.54 
L 76.74293 44.54 
L 87.74293 44.54 
L 87.74293 44.54 
L 93.24293 44.54 
" style="fill: none; stroke: #0b0b0b; stroke-width: 1.6; stroke-linecap: square"/>
    </g>
    <g id="text_18">
     <!-- Vị trí thật của vật -->
     <g transform="translate(102.04293 48.39) scale(0.11 -0.11)">
      <defs>
       <path id="DejaVuSans-9e4" d="M 544 1381 
L 544 3500 
L 1119 3500 
L 1119 1403 
Q 1119 906 1312 657 
Q 1506 409 1894 409 
Q 2359 409 2629 706 
Q 2900 1003 2900 1516 
L 2900 3500 
L 3475 3500 
L 3475 0 
L 2900 0 
L 2900 538 
Q 2691 219 2414 64 
Q 2138 -91 1772 -91 
Q 1169 -91 856 284 
Q 544 659 544 1381 
z
M 1991 3584 
L 1991 3584 
z
M 1363 5025 
Q 1713 5184 2041 5184 
Q 2366 5184 2564 5051 
Q 2763 4919 2763 4709 
Q 2763 4519 2488 4316 
L 2350 4216 
Q 2241 4134 2228 4106 
Q 2207 4056 2207 3956 
L 1835 3956 
L 1835 3994 
Q 1835 4119 1881 4203 
Q 1928 4288 2088 4403 
L 2228 4509 
Q 2372 4616 2372 4741 
Q 2372 4806 2275 4862 
Q 2178 4919 1957 4919 
Q 1675 4919 1363 4756 
L 1363 5025 
z
" transform="scale(0.015625)"/>
      </defs>
      <use xlink:href="#DejaVuSans-39"/>
      <use xlink:href="#DejaVuSans-9c8" transform="translate(68.40625 0)"/>
      <use xlink:href="#DejaVuSans-3" transform="translate(96.1875 0)"/>
      <use xlink:href="#DejaVuSans-57" transform="translate(127.96875 0)"/>
      <use xlink:href="#DejaVuSans-55" transform="translate(167.171875 0)"/>
      <use xlink:href="#DejaVuSans-af" transform="translate(208.28125 0)"/>
      <use xlink:href="#DejaVuSans-3" transform="translate(236.0625 0)"/>
      <use xlink:href="#DejaVuSans-57" transform="translate(267.84375 0)"/>
      <use xlink:href="#DejaVuSans-4b" transform="translate(307.046875 0)"/>
      <use xlink:href="#DejaVuSans-9aa" transform="translate(370.421875 0)"/>
      <use xlink:href="#DejaVuSans-57" transform="translate(431.703125 0)"/>
      <use xlink:href="#DejaVuSans-3" transform="translate(470.90625 0)"/>
      <use xlink:href="#DejaVuSans-46" transform="translate(502.6875 0)"/>
      <use xlink:href="#DejaVuSans-9e4" transform="translate(557.671875 0)"/>
      <use xlink:href="#DejaVuSans-44" transform="translate(621.046875 0)"/>
      <use xlink:href="#DejaVuSans-3" transform="translate(682.328125 0)"/>
      <use xlink:href="#DejaVuSans-59" transform="translate(714.109375 0)"/>
      <use xlink:href="#DejaVuSans-9aa" transform="translate(773.296875 0)"/>
      <use xlink:href="#DejaVuSans-57" transform="translate(834.578125 0)"/>
     </g>
    </g>
    <g id="line2d_19">
     <path d="M 71.24293 61.480859 
L 82.24293 61.480859 
L 93.24293 61.480859 
" style="fill: none; stroke: #eb6834; stroke-width: 2.4; stroke-linecap: square"/>
    </g>
    <g id="text_19">
     <!-- Ngõ ra bộ lọc -->
     <g transform="translate(102.04293 65.330859) scale(0.11 -0.11)">
      <defs>
       <path id="DejaVuSans-31" d="M 628 4666 
L 1478 4666 
L 3547 763 
L 3547 4666 
L 4159 4666 
L 4159 0 
L 3309 0 
L 1241 3903 
L 1241 0 
L 628 0 
L 628 4666 
z
" transform="scale(0.015625)"/>
       <path id="DejaVuSans-b7" d="M 1959 3097 
Q 1497 3097 1228 2736 
Q 959 2375 959 1747 
Q 959 1119 1226 758 
Q 1494 397 1959 397 
Q 2419 397 2687 759 
Q 2956 1122 2956 1747 
Q 2956 2369 2687 2733 
Q 2419 3097 1959 3097 
z
M 1959 3584 
Q 2709 3584 3137 3096 
Q 3566 2609 3566 1747 
Q 3566 888 3137 398 
Q 2709 -91 1959 -91 
Q 1206 -91 779 398 
Q 353 888 353 1747 
Q 353 2609 779 3096 
Q 1206 3584 1959 3584 
z
M 1947 4281 
L 1768 4453 
Q 1700 4516 1648 4545 
Q 1597 4575 1556 4575 
Q 1437 4575 1381 4461 
Q 1325 4347 1318 4091 
L 928 4091 
Q 934 4513 1093 4742 
Q 1253 4972 1537 4972 
Q 1656 4972 1756 4928 
Q 1856 4884 1972 4781 
L 2150 4609 
Q 2218 4547 2270 4517 
Q 2322 4488 2362 4488 
Q 2481 4488 2537 4602 
Q 2593 4716 2600 4972 
L 2990 4972 
Q 2984 4550 2824 4320 
Q 2665 4091 2381 4091 
Q 2262 4091 2162 4134 
Q 2062 4178 1947 4281 
z
" transform="scale(0.015625)"/>
       <path id="DejaVuSans-9ca" d="M 1959 3097 
Q 1497 3097 1228 2736 
Q 959 2375 959 1747 
Q 959 1119 1226 758 
Q 1494 397 1959 397 
Q 2419 397 2687 759 
Q 2956 1122 2956 1747 
Q 2956 2369 2687 2733 
Q 2419 3097 1959 3097 
z
M 1959 3584 
Q 2709 3584 3137 3096 
Q 3566 2609 3566 1747 
Q 3566 888 3137 398 
Q 2709 -91 1959 -91 
Q 1206 -91 779 398 
Q 353 888 353 1747 
Q 353 2609 779 3096 
Q 1206 3584 1959 3584 
z
M 1665 -441 
L 2240 -441 
L 2240 -1172 
L 1665 -1172 
L 1665 -441 
z
" transform="scale(0.015625)"/>
      </defs>
      <use xlink:href="#DejaVuSans-31"/>
      <use xlink:href="#DejaVuSans-4a" transform="translate(74.8125 0)"/>
      <use xlink:href="#DejaVuSans-b7" transform="translate(138.296875 0)"/>
      <use xlink:href="#DejaVuSans-3" transform="translate(199.484375 0)"/>
      <use xlink:href="#DejaVuSans-55" transform="translate(231.265625 0)"/>
      <use xlink:href="#DejaVuSans-44" transform="translate(272.375 0)"/>
      <use xlink:href="#DejaVuSans-3" transform="translate(333.65625 0)"/>
      <use xlink:href="#DejaVuSans-45" transform="translate(365.4375 0)"/>
      <use xlink:href="#DejaVuSans-9d6" transform="translate(428.921875 0)"/>
      <use xlink:href="#DejaVuSans-3" transform="translate(490.109375 0)"/>
      <use xlink:href="#DejaVuSans-4f" transform="translate(521.890625 0)"/>
      <use xlink:href="#DejaVuSans-9ca" transform="translate(549.671875 0)"/>
      <use xlink:href="#DejaVuSans-46" transform="translate(610.859375 0)"/>
     </g>
    </g>
   </g>
   <g id="patch_7">
    <path d="M 630.499929 164.109681 
Q 604.222018 149.407567 579.114952 135.360525 
" style="fill: none; stroke: #000000; stroke-width: 1.2; stroke-linecap: round"/>
    <path d="M 582.006358 139.613732 
L 579.114952 135.360525 
L 584.252362 135.599324 
" style="fill: none; stroke: #000000; stroke-width: 1.2; stroke-linecap: round"/>
   </g>
   <g id="text_20">
    <g id="patch_8">
     <path d="M 586.190484 200.127484 
L 740.933765 200.127484 
L 740.933765 165.087523 
L 586.190484 165.087523 
z
" style="fill: #ffffff; opacity: 0.92"/>
    </g>
    <!-- Biên trước dốc thoai thoải -->
    <g transform="translate(589.180484 178.960521) scale(0.115 -0.115)">
     <defs>
      <path id="DejaVuSans-25" d="M 1259 2228 
L 1259 519 
L 2272 519 
Q 2781 519 3026 730 
Q 3272 941 3272 1375 
Q 3272 1813 3026 2020 
Q 2781 2228 2272 2228 
L 1259 2228 
z
M 1259 4147 
L 1259 2741 
L 2194 2741 
Q 2656 2741 2882 2914 
Q 3109 3088 3109 3444 
Q 3109 3797 2882 3972 
Q 2656 4147 2194 4147 
L 1259 4147 
z
M 628 4666 
L 2241 4666 
Q 2963 4666 3353 4366 
Q 3744 4066 3744 3513 
Q 3744 3084 3544 2831 
Q 3344 2578 2956 2516 
Q 3422 2416 3680 2098 
Q 3938 1781 3938 1306 
Q 3938 681 3513 340 
Q 3088 0 2303 0 
L 628 0 
L 628 4666 
z
" transform="scale(0.015625)"/>
      <path id="DejaVuSans-172" d="M 3094 3106 
L 3094 3478 
Q 3285 3337 3422 3270 
Q 3560 3203 3656 3203 
Q 3800 3203 3872 3289 
Q 3944 3375 3944 3543 
Q 3944 3643 3920 3740 
Q 3897 3837 3850 3934 
L 4266 3934 
Q 4297 3815 4312 3709 
Q 4328 3603 4328 3509 
Q 4328 3128 4192 2948 
Q 4057 2768 3766 2768 
Q 3616 2768 3452 2851 
Q 3288 2934 3094 3106 
z
M 550 1381 
L 550 3500 
L 1125 3500 
L 1125 1403 
Q 1125 906 1318 657 
Q 1512 409 1900 409 
Q 2365 409 2635 706 
Q 2906 1003 2906 1516 
L 2906 3500 
L 3481 3500 
L 3481 0 
L 2906 0 
L 2906 538 
Q 2697 219 2420 64 
Q 2144 -91 1778 -91 
Q 1175 -91 862 284 
Q 550 659 550 1381 
z
M 1997 3584 
L 1997 3584 
z
" transform="scale(0.015625)"/>
      <path id="DejaVuSans-9d8" d="M 2393 5119 
L 3015 5119 
L 1997 3944 
L 1518 3944 
L 2393 5119 
z
M 2625 3106 
L 2625 3478 
Q 2816 3337 2953 3270 
Q 3091 3203 3187 3203 
Q 3331 3203 3403 3289 
Q 3475 3375 3475 3543 
Q 3475 3643 3451 3740 
Q 3428 3837 3381 3934 
L 3797 3934 
Q 3828 3815 3843 3709 
Q 3859 3603 3859 3509 
Q 3859 3128 3723 2948 
Q 3588 2768 3297 2768 
Q 3147 2768 2983 2851 
Q 2819 2934 2625 3106 
z
M 1975 3097 
Q 1513 3097 1244 2736 
Q 975 2375 975 1747 
Q 975 1119 1242 758 
Q 1510 397 1975 397 
Q 2435 397 2703 759 
Q 2972 1122 2972 1747 
Q 2972 2369 2703 2733 
Q 2435 3097 1975 3097 
z
M 1975 3584 
Q 2725 3584 3153 3096 
Q 3582 2609 3582 1747 
Q 3582 888 3153 398 
Q 2725 -91 1975 -91 
Q 1222 -91 795 398 
Q 369 888 369 1747 
Q 369 2609 795 3096 
Q 1222 3584 1975 3584 
z
" transform="scale(0.015625)"/>
      <path id="DejaVuSans-47" d="M 2906 2969 
L 2906 4863 
L 3481 4863 
L 3481 0 
L 2906 0 
L 2906 525 
Q 2725 213 2448 61 
Q 2172 -91 1784 -91 
Q 1150 -91 751 415 
Q 353 922 353 1747 
Q 353 2572 751 3078 
Q 1150 3584 1784 3584 
Q 2172 3584 2448 3432 
Q 2725 3281 2906 2969 
z
M 947 1747 
Q 947 1113 1208 752 
Q 1469 391 1925 391 
Q 2381 391 2643 752 
Q 2906 1113 2906 1747 
Q 2906 2381 2643 2742 
Q 2381 3103 1925 3103 
Q 1469 3103 1208 2742 
Q 947 2381 947 1747 
z
" transform="scale(0.015625)"/>
      <path id="DejaVuSans-9ce" d="M 1663 4775 
L 2251 4775 
L 2910 3944 
L 2476 3944 
L 1957 4500 
L 1438 3944 
L 1004 3944 
L 1663 4775 
z
M 3266 5416 
L 3844 5416 
L 3131 4591 
L 2653 4591 
L 3266 5416 
z
M 1959 3097 
Q 1497 3097 1228 2736 
Q 959 2375 959 1747 
Q 959 1119 1226 758 
Q 1494 397 1959 397 
Q 2419 397 2687 759 
Q 2956 1122 2956 1747 
Q 2956 2369 2687 2733 
Q 2419 3097 1959 3097 
z
M 1959 3584 
Q 2709 3584 3137 3096 
Q 3566 2609 3566 1747 
Q 3566 888 3137 398 
Q 2709 -91 1959 -91 
Q 1206 -91 779 398 
Q 353 888 353 1747 
Q 353 2609 779 3096 
Q 1206 3584 1959 3584 
z
" transform="scale(0.015625)"/>
      <path id="DejaVuSans-9a0" d="M 2194 1759 
Q 1497 1759 1228 1600 
Q 959 1441 959 1056 
Q 959 750 1161 570 
Q 1363 391 1709 391 
Q 2188 391 2477 730 
Q 2766 1069 2766 1631 
L 2766 1759 
L 2194 1759 
z
M 3341 1997 
L 3341 0 
L 2766 0 
L 2766 531 
Q 2569 213 2275 61 
Q 1981 -91 1556 -91 
Q 1019 -91 701 211 
Q 384 513 384 1019 
Q 384 1609 779 1909 
Q 1175 2209 1959 2209 
L 2766 2209 
L 2766 2266 
Q 2766 2663 2505 2880 
Q 2244 3097 1772 3097 
Q 1472 3097 1187 3025 
Q 903 2953 641 2809 
L 641 3341 
Q 956 3463 1253 3523 
Q 1550 3584 1831 3584 
Q 2591 3584 2966 3190 
Q 3341 2797 3341 1997 
z
M 1235 5025 
Q 1585 5184 1913 5184 
Q 2238 5184 2436 5051 
Q 2635 4919 2635 4709 
Q 2635 4519 2360 4316 
L 2222 4216 
Q 2113 4134 2100 4106 
Q 2079 4056 2079 3956 
L 1707 3956 
L 1707 3994 
Q 1707 4119 1753 4203 
Q 1800 4288 1960 4403 
L 2100 4509 
Q 2244 4616 2244 4741 
Q 2244 4806 2147 4862 
Q 2050 4919 1829 4919 
Q 1547 4919 1235 4756 
L 1235 5025 
z
" transform="scale(0.015625)"/>
     </defs>
     <use xlink:href="#DejaVuSans-25"/>
     <use xlink:href="#DejaVuSans-4c" transform="translate(68.609375 0)"/>
     <use xlink:href="#DejaVuSans-ac" transform="translate(96.390625 0)"/>
     <use xlink:href="#DejaVuSans-51" transform="translate(157.921875 0)"/>
     <use xlink:href="#DejaVuSans-3" transform="translate(221.296875 0)"/>
     <use xlink:href="#DejaVuSans-57" transform="translate(253.078125 0)"/>
     <use xlink:href="#DejaVuSans-55" transform="translate(292.28125 0)"/>
     <use xlink:href="#DejaVuSans-172" transform="translate(333.390625 0)"/>
     <use xlink:href="#DejaVuSans-9d8" transform="translate(396.765625 0)"/>
     <use xlink:href="#DejaVuSans-46" transform="translate(457.953125 0)"/>
     <use xlink:href="#DejaVuSans-3" transform="translate(512.9375 0)"/>
     <use xlink:href="#DejaVuSans-47" transform="translate(544.71875 0)"/>
     <use xlink:href="#DejaVuSans-9ce" transform="translate(608.203125 0)"/>
     <use xlink:href="#DejaVuSans-46" transform="translate(669.390625 0)"/>
     <use xlink:href="#DejaVuSans-3" transform="translate(724.375 0)"/>
     <use xlink:href="#DejaVuSans-57" transform="translate(756.15625 0)"/>
     <use xlink:href="#DejaVuSans-4b" transform="translate(795.359375 0)"/>
     <use xlink:href="#DejaVuSans-52" transform="translate(858.734375 0)"/>
     <use xlink:href="#DejaVuSans-44" transform="translate(919.921875 0)"/>
     <use xlink:href="#DejaVuSans-4c" transform="translate(981.203125 0)"/>
     <use xlink:href="#DejaVuSans-3" transform="translate(1008.984375 0)"/>
     <use xlink:href="#DejaVuSans-57" transform="translate(1040.765625 0)"/>
     <use xlink:href="#DejaVuSans-4b" transform="translate(1079.96875 0)"/>
     <use xlink:href="#DejaVuSans-52" transform="translate(1143.34375 0)"/>
     <use xlink:href="#DejaVuSans-9a0" transform="translate(1204.53125 0)"/>
     <use xlink:href="#DejaVuSans-4c" transform="translate(1265.8125 0)"/>
    </g>
    <!-- (chậm hiện cái mới) -->
    <g transform="translate(623.299547 193.223666) scale(0.115 -0.115)">
     <defs>
      <path id="DejaVuSans-9c4" d="M 1740 -441 
L 2315 -441 
L 2315 -1172 
L 1740 -1172 
L 1740 -441 
z
M 3597 1894 
L 3597 1613 
L 953 1613 
Q 991 1019 1311 708 
Q 1631 397 2203 397 
Q 2534 397 2845 478 
Q 3156 559 3463 722 
L 3463 178 
Q 3153 47 2828 -22 
Q 2503 -91 2169 -91 
Q 1331 -91 842 396 
Q 353 884 353 1716 
Q 353 2575 817 3079 
Q 1281 3584 2069 3584 
Q 2775 3584 3186 3129 
Q 3597 2675 3597 1894 
z
M 3022 2063 
Q 3016 2534 2758 2815 
Q 2500 3097 2075 3097 
Q 1594 3097 1305 2825 
Q 1016 2553 972 2059 
L 3022 2063 
z
M 1740 -441 
L 2315 -441 
L 2315 -1172 
L 1740 -1172 
L 1740 -441 
z
M 1803 5119 
L 2265 5119 
L 3031 3944 
L 2597 3944 
L 2034 4709 
L 1472 3944 
L 1037 3944 
L 1803 5119 
z
" transform="scale(0.015625)"/>
     </defs>
     <use xlink:href="#DejaVuSans-b"/>
     <use xlink:href="#DejaVuSans-46" transform="translate(39.015625 0)"/>
     <use xlink:href="#DejaVuSans-4b" transform="translate(94 0)"/>
     <use xlink:href="#DejaVuSans-9aa" transform="translate(157.375 0)"/>
     <use xlink:href="#DejaVuSans-50" transform="translate(218.65625 0)"/>
     <use xlink:href="#DejaVuSans-3" transform="translate(316.0625 0)"/>
     <use xlink:href="#DejaVuSans-4b" transform="translate(347.84375 0)"/>
     <use xlink:href="#DejaVuSans-4c" transform="translate(411.21875 0)"/>
     <use xlink:href="#DejaVuSans-9c4" transform="translate(439 0)"/>
     <use xlink:href="#DejaVuSans-51" transform="translate(500.53125 0)"/>
     <use xlink:href="#DejaVuSans-3" transform="translate(563.90625 0)"/>
     <use xlink:href="#DejaVuSans-46" transform="translate(595.6875 0)"/>
     <use xlink:href="#DejaVuSans-a3" transform="translate(650.671875 0)"/>
     <use xlink:href="#DejaVuSans-4c" transform="translate(711.953125 0)"/>
     <use xlink:href="#DejaVuSans-3" transform="translate(739.734375 0)"/>
     <use xlink:href="#DejaVuSans-50" transform="translate(771.515625 0)"/>
     <use xlink:href="#DejaVuSans-9d8" transform="translate(868.921875 0)"/>
     <use xlink:href="#DejaVuSans-4c" transform="translate(930.109375 0)"/>
     <use xlink:href="#DejaVuSans-c" transform="translate(957.890625 0)"/>
    </g>
   </g>
   <g id="patch_9">
    <path d="M 309.498875 150.035755 
Q 416.815618 175.732018 522.827601 201.115865 
" style="fill: none; stroke: #000000; stroke-width: 1.2; stroke-linecap: round"/>
    <path d="M 518.889635 197.807932 
L 522.827601 201.115865 
L 517.818475 202.281478 
" style="fill: none; stroke: #000000; stroke-width: 1.2; stroke-linecap: round"/>
   </g>
   <g id="text_21">
    <g id="patch_10">
     <path d="M 149.477621 149.570904 
L 317.819653 149.570904 
L 317.819653 114.176959 
L 149.477621 114.176959 
z
" style="fill: #ffffff; opacity: 0.92"/>
    </g>
    <!-- Đuôi ngắn, dính liền vào vật -->
    <g transform="translate(152.467621 128.403942) scale(0.115 -0.115)">
     <defs>
      <path id="DejaVuSans-b6" d="M 1959 3097 
Q 1497 3097 1228 2736 
Q 959 2375 959 1747 
Q 959 1119 1226 758 
Q 1494 397 1959 397 
Q 2419 397 2687 759 
Q 2956 1122 2956 1747 
Q 2956 2369 2687 2733 
Q 2419 3097 1959 3097 
z
M 1959 3584 
Q 2709 3584 3137 3096 
Q 3566 2609 3566 1747 
Q 3566 888 3137 398 
Q 2709 -91 1959 -91 
Q 1206 -91 779 398 
Q 353 888 353 1747 
Q 353 2609 779 3096 
Q 1206 3584 1959 3584 
z
M 1728 5119 
L 2190 5119 
L 2956 3944 
L 2522 3944 
L 1959 4709 
L 1397 3944 
L 962 3944 
L 1728 5119 
z
" transform="scale(0.015625)"/>
      <path id="DejaVuSans-9ac" d="M 863 4756 
L 1232 4756 
Q 1272 4587 1427 4498 
Q 1582 4409 1841 4409 
Q 2097 4409 2248 4495 
Q 2400 4581 2450 4756 
L 2819 4756 
Q 2788 4384 2538 4192 
Q 2288 4000 1841 4000 
Q 1391 4000 1142 4190 
Q 894 4381 863 4756 
z
M 2175 5613 
L 2753 5613 
L 2040 4788 
L 1562 4788 
L 2175 5613 
z
M 2194 1759 
Q 1497 1759 1228 1600 
Q 959 1441 959 1056 
Q 959 750 1161 570 
Q 1363 391 1709 391 
Q 2188 391 2477 730 
Q 2766 1069 2766 1631 
L 2766 1759 
L 2194 1759 
z
M 3341 1997 
L 3341 0 
L 2766 0 
L 2766 531 
Q 2569 213 2275 61 
Q 1981 -91 1556 -91 
Q 1019 -91 701 211 
Q 384 513 384 1019 
Q 384 1609 779 1909 
Q 1175 2209 1959 2209 
L 2766 2209 
L 2766 2266 
Q 2766 2663 2505 2880 
Q 2244 3097 1772 3097 
Q 1472 3097 1187 3025 
Q 903 2953 641 2809 
L 641 3341 
Q 956 3463 1253 3523 
Q 1550 3584 1831 3584 
Q 2591 3584 2966 3190 
Q 3341 2797 3341 1997 
z
" transform="scale(0.015625)"/>
      <path id="DejaVuSans-9be" d="M 2778 5419 
L 3390 4594 
L 2912 4594 
L 2193 5419 
L 2778 5419 
z
M 1744 4778 
L 2332 4778 
L 2991 3947 
L 2557 3947 
L 2038 4503 
L 1519 3947 
L 1085 3947 
L 1744 4778 
z
M 3597 1894 
L 3597 1613 
L 953 1613 
Q 991 1019 1311 708 
Q 1631 397 2203 397 
Q 2534 397 2845 478 
Q 3156 559 3463 722 
L 3463 178 
Q 3153 47 2828 -22 
Q 2503 -91 2169 -91 
Q 1331 -91 842 396 
Q 353 884 353 1716 
Q 353 2575 817 3079 
Q 1281 3584 2069 3584 
Q 2775 3584 3186 3129 
Q 3597 2675 3597 1894 
z
M 3022 2063 
Q 3016 2534 2758 2815 
Q 2500 3097 2075 3097 
Q 1594 3097 1305 2825 
Q 1016 2553 972 2059 
L 3022 2063 
z
" transform="scale(0.015625)"/>
      <path id="DejaVuSans-a2" d="M 2194 1759 
Q 1497 1759 1228 1600 
Q 959 1441 959 1056 
Q 959 750 1161 570 
Q 1363 391 1709 391 
Q 2188 391 2477 730 
Q 2766 1069 2766 1631 
L 2766 1759 
L 2194 1759 
z
M 3341 1997 
L 3341 0 
L 2766 0 
L 2766 531 
Q 2569 213 2275 61 
Q 1981 -91 1556 -91 
Q 1019 -91 701 211 
Q 384 513 384 1019 
Q 384 1609 779 1909 
Q 1175 2209 1959 2209 
L 2766 2209 
L 2766 2266 
Q 2766 2663 2505 2880 
Q 2244 3097 1772 3097 
Q 1472 3097 1187 3025 
Q 903 2953 641 2809 
L 641 3341 
Q 956 3463 1253 3523 
Q 1550 3584 1831 3584 
Q 2591 3584 2966 3190 
Q 3341 2797 3341 1997 
z
M 1403 5119 
L 2284 3950 
L 1806 3950 
L 787 5119 
L 1403 5119 
z
" transform="scale(0.015625)"/>
     </defs>
     <use xlink:href="#DejaVuSans-d2"/>
     <use xlink:href="#DejaVuSans-58" transform="translate(77.484375 0)"/>
     <use xlink:href="#DejaVuSans-b6" transform="translate(140.859375 0)"/>
     <use xlink:href="#DejaVuSans-4c" transform="translate(202.046875 0)"/>
     <use xlink:href="#DejaVuSans-3" transform="translate(229.828125 0)"/>
     <use xlink:href="#DejaVuSans-51" transform="translate(261.609375 0)"/>
     <use xlink:href="#DejaVuSans-4a" transform="translate(324.984375 0)"/>
     <use xlink:href="#DejaVuSans-9ac" transform="translate(388.46875 0)"/>
     <use xlink:href="#DejaVuSans-51" transform="translate(449.75 0)"/>
     <use xlink:href="#DejaVuSans-f" transform="translate(513.125 0)"/>
     <use xlink:href="#DejaVuSans-3" transform="translate(544.90625 0)"/>
     <use xlink:href="#DejaVuSans-47" transform="translate(576.6875 0)"/>
     <use xlink:href="#DejaVuSans-af" transform="translate(640.171875 0)"/>
     <use xlink:href="#DejaVuSans-51" transform="translate(667.953125 0)"/>
     <use xlink:href="#DejaVuSans-4b" transform="translate(731.328125 0)"/>
     <use xlink:href="#DejaVuSans-3" transform="translate(794.703125 0)"/>
     <use xlink:href="#DejaVuSans-4f" transform="translate(826.484375 0)"/>
     <use xlink:href="#DejaVuSans-4c" transform="translate(854.265625 0)"/>
     <use xlink:href="#DejaVuSans-9be" transform="translate(882.046875 0)"/>
     <use xlink:href="#DejaVuSans-51" transform="translate(943.578125 0)"/>
     <use xlink:href="#DejaVuSans-3" transform="translate(1006.953125 0)"/>
     <use xlink:href="#DejaVuSans-59" transform="translate(1038.734375 0)"/>
     <use xlink:href="#DejaVuSans-a2" transform="translate(1097.921875 0)"/>
     <use xlink:href="#DejaVuSans-52" transform="translate(1159.203125 0)"/>
     <use xlink:href="#DejaVuSans-3" transform="translate(1220.390625 0)"/>
     <use xlink:href="#DejaVuSans-59" transform="translate(1252.171875 0)"/>
     <use xlink:href="#DejaVuSans-9aa" transform="translate(1311.359375 0)"/>
     <use xlink:href="#DejaVuSans-57" transform="translate(1372.640625 0)"/>
    </g>
    <!-- (chậm quên cái cũ) -->
    <g transform="translate(152.467621 142.667086) scale(0.115 -0.115)">
     <defs>
      <path id="DejaVuSans-54" d="M 947 1747 
Q 947 1113 1208 752 
Q 1469 391 1925 391 
Q 2381 391 2643 752 
Q 2906 1113 2906 1747 
Q 2906 2381 2643 2742 
Q 2381 3103 1925 3103 
Q 1469 3103 1208 2742 
Q 947 2381 947 1747 
z
M 2906 525 
Q 2725 213 2448 61 
Q 2172 -91 1784 -91 
Q 1150 -91 751 415 
Q 353 922 353 1747 
Q 353 2572 751 3078 
Q 1150 3584 1784 3584 
Q 2172 3584 2448 3432 
Q 2725 3281 2906 2969 
L 2906 3500 
L 3481 3500 
L 3481 -1331 
L 2906 -1331 
L 2906 525 
z
" transform="scale(0.015625)"/>
     </defs>
     <use xlink:href="#DejaVuSans-b"/>
     <use xlink:href="#DejaVuSans-46" transform="translate(39.015625 0)"/>
     <use xlink:href="#DejaVuSans-4b" transform="translate(94 0)"/>
     <use xlink:href="#DejaVuSans-9aa" transform="translate(157.375 0)"/>
     <use xlink:href="#DejaVuSans-50" transform="translate(218.65625 0)"/>
     <use xlink:href="#DejaVuSans-3" transform="translate(316.0625 0)"/>
     <use xlink:href="#DejaVuSans-54" transform="translate(347.84375 0)"/>
     <use xlink:href="#DejaVuSans-58" transform="translate(411.328125 0)"/>
     <use xlink:href="#DejaVuSans-ac" transform="translate(474.703125 0)"/>
     <use xlink:href="#DejaVuSans-51" transform="translate(536.234375 0)"/>
     <use xlink:href="#DejaVuSans-3" transform="translate(599.609375 0)"/>
     <use xlink:href="#DejaVuSans-46" transform="translate(631.390625 0)"/>
     <use xlink:href="#DejaVuSans-a3" transform="translate(686.375 0)"/>
     <use xlink:href="#DejaVuSans-4c" transform="translate(747.65625 0)"/>
     <use xlink:href="#DejaVuSans-3" transform="translate(775.4375 0)"/>
     <use xlink:href="#DejaVuSans-46" transform="translate(807.21875 0)"/>
     <use xlink:href="#DejaVuSans-12b" transform="translate(862.203125 0)"/>
     <use xlink:href="#DejaVuSans-c" transform="translate(925.578125 0)"/>
    </g>
   </g>
  </g>
  <g id="axes_2">
   <g id="patch_11">
    <path d="M 61.34293 569.11707 
L 742.5 569.11707 
L 742.5 329.638535 
L 61.34293 329.638535 
z
" style="fill: #ffffff"/>
   </g>
   <g id="matplotlib.axis_3">
    <g id="xtick_7">
     <g id="line2d_20">
      <g>
       <use xlink:href="#mb6876d8263" x="61.34293" y="569.11707" style="stroke: #000000; stroke-width: 0.8"/>
      </g>
     </g>
     <g id="text_22">
      <!-- 0 -->
      <g transform="translate(57.366367 585.614141) scale(0.125 -0.125)">
       <use xlink:href="#DejaVuSans-13"/>
      </g>
     </g>
    </g>
    <g id="xtick_8">
     <g id="line2d_21">
      <g>
       <use xlink:href="#mb6876d8263" x="175.248794" y="569.11707" style="stroke: #000000; stroke-width: 0.8"/>
      </g>
     </g>
     <g id="text_23">
      <!-- 50 -->
      <g transform="translate(167.295669 585.614141) scale(0.125 -0.125)">
       <use xlink:href="#DejaVuSans-18"/>
       <use xlink:href="#DejaVuSans-13" transform="translate(63.625 0)"/>
      </g>
     </g>
    </g>
    <g id="xtick_9">
     <g id="line2d_22">
      <g>
       <use xlink:href="#mb6876d8263" x="289.154659" y="569.11707" style="stroke: #000000; stroke-width: 0.8"/>
      </g>
     </g>
     <g id="text_24">
      <!-- 100 -->
      <g transform="translate(277.224971 585.614141) scale(0.125 -0.125)">
       <use xlink:href="#DejaVuSans-14"/>
       <use xlink:href="#DejaVuSans-13" transform="translate(63.625 0)"/>
       <use xlink:href="#DejaVuSans-13" transform="translate(127.25 0)"/>
      </g>
     </g>
    </g>
    <g id="xtick_10">
     <g id="line2d_23">
      <g>
       <use xlink:href="#mb6876d8263" x="403.060523" y="569.11707" style="stroke: #000000; stroke-width: 0.8"/>
      </g>
     </g>
     <g id="text_25">
      <!-- 150 -->
      <g transform="translate(391.130836 585.614141) scale(0.125 -0.125)">
       <use xlink:href="#DejaVuSans-14"/>
       <use xlink:href="#DejaVuSans-18" transform="translate(63.625 0)"/>
       <use xlink:href="#DejaVuSans-13" transform="translate(127.25 0)"/>
      </g>
     </g>
    </g>
    <g id="xtick_11">
     <g id="line2d_24">
      <g>
       <use xlink:href="#mb6876d8263" x="516.966388" y="569.11707" style="stroke: #000000; stroke-width: 0.8"/>
      </g>
     </g>
     <g id="text_26">
      <!-- 200 -->
      <g transform="translate(505.036701 585.614141) scale(0.125 -0.125)">
       <use xlink:href="#DejaVuSans-15"/>
       <use xlink:href="#DejaVuSans-13" transform="translate(63.625 0)"/>
       <use xlink:href="#DejaVuSans-13" transform="translate(127.25 0)"/>
      </g>
     </g>
    </g>
    <g id="xtick_12">
     <g id="line2d_25">
      <g>
       <use xlink:href="#mb6876d8263" x="630.872253" y="569.11707" style="stroke: #000000; stroke-width: 0.8"/>
      </g>
     </g>
     <g id="text_27">
      <!-- 250 -->
      <g transform="translate(618.942565 585.614141) scale(0.125 -0.125)">
       <use xlink:href="#DejaVuSans-15"/>
       <use xlink:href="#DejaVuSans-18" transform="translate(63.625 0)"/>
       <use xlink:href="#DejaVuSans-13" transform="translate(127.25 0)"/>
      </g>
     </g>
    </g>
    <g id="text_28">
     <!-- Vị trí pixel trên một hàng ảnh -->
     <g transform="translate(309.920488 602.74207) scale(0.125 -0.125)">
      <use xlink:href="#DejaVuSans-39"/>
      <use xlink:href="#DejaVuSans-9c8" transform="translate(68.40625 0)"/>
      <use xlink:href="#DejaVuSans-3" transform="translate(96.1875 0)"/>
      <use xlink:href="#DejaVuSans-57" transform="translate(127.96875 0)"/>
      <use xlink:href="#DejaVuSans-55" transform="translate(167.171875 0)"/>
      <use xlink:href="#DejaVuSans-af" transform="translate(208.28125 0)"/>
      <use xlink:href="#DejaVuSans-3" transform="translate(236.0625 0)"/>
      <use xlink:href="#DejaVuSans-53" transform="translate(267.84375 0)"/>
      <use xlink:href="#DejaVuSans-4c" transform="translate(331.328125 0)"/>
      <use xlink:href="#DejaVuSans-5b" transform="translate(359.109375 0)"/>
      <use xlink:href="#DejaVuSans-48" transform="translate(415.21875 0)"/>
      <use xlink:href="#DejaVuSans-4f" transform="translate(476.75 0)"/>
      <use xlink:href="#DejaVuSans-3" transform="translate(504.53125 0)"/>
      <use xlink:href="#DejaVuSans-57" transform="translate(536.3125 0)"/>
      <use xlink:href="#DejaVuSans-55" transform="translate(575.515625 0)"/>
      <use xlink:href="#DejaVuSans-ac" transform="translate(614.421875 0)"/>
      <use xlink:href="#DejaVuSans-51" transform="translate(675.953125 0)"/>
      <use xlink:href="#DejaVuSans-3" transform="translate(739.328125 0)"/>
      <use xlink:href="#DejaVuSans-50" transform="translate(771.109375 0)"/>
      <use xlink:href="#DejaVuSans-9d6" transform="translate(868.515625 0)"/>
      <use xlink:href="#DejaVuSans-57" transform="translate(929.703125 0)"/>
      <use xlink:href="#DejaVuSans-3" transform="translate(968.90625 0)"/>
      <use xlink:href="#DejaVuSans-4b" transform="translate(1000.6875 0)"/>
      <use xlink:href="#DejaVuSans-a2" transform="translate(1064.0625 0)"/>
      <use xlink:href="#DejaVuSans-51" transform="translate(1125.34375 0)"/>
      <use xlink:href="#DejaVuSans-4a" transform="translate(1188.71875 0)"/>
      <use xlink:href="#DejaVuSans-3" transform="translate(1252.203125 0)"/>
      <use xlink:href="#DejaVuSans-9a0" transform="translate(1283.984375 0)"/>
      <use xlink:href="#DejaVuSans-51" transform="translate(1345.265625 0)"/>
      <use xlink:href="#DejaVuSans-4b" transform="translate(1408.640625 0)"/>
     </g>
    </g>
   </g>
   <g id="matplotlib.axis_4">
    <g id="ytick_10">
     <g id="line2d_26">
      <g>
       <use xlink:href="#m26f00cc98e" x="61.34293" y="562.464889" style="stroke: #000000; stroke-width: 0.8"/>
      </g>
     </g>
     <g id="text_29">
      <!-- 40 -->
      <g transform="translate(38.43668 567.213424) scale(0.125 -0.125)">
       <use xlink:href="#DejaVuSans-17"/>
       <use xlink:href="#DejaVuSans-13" transform="translate(63.625 0)"/>
      </g>
     </g>
    </g>
    <g id="ytick_11">
     <g id="line2d_27">
      <g>
       <use xlink:href="#m26f00cc98e" x="61.34293" y="535.856163" style="stroke: #000000; stroke-width: 0.8"/>
      </g>
     </g>
     <g id="text_30">
      <!-- 60 -->
      <g transform="translate(38.43668 540.604698) scale(0.125 -0.125)">
       <use xlink:href="#DejaVuSans-19"/>
       <use xlink:href="#DejaVuSans-13" transform="translate(63.625 0)"/>
      </g>
     </g>
    </g>
    <g id="ytick_12">
     <g id="line2d_28">
      <g>
       <use xlink:href="#m26f00cc98e" x="61.34293" y="509.247437" style="stroke: #000000; stroke-width: 0.8"/>
      </g>
     </g>
     <g id="text_31">
      <!-- 80 -->
      <g transform="translate(38.43668 513.995972) scale(0.125 -0.125)">
       <use xlink:href="#DejaVuSans-1b"/>
       <use xlink:href="#DejaVuSans-13" transform="translate(63.625 0)"/>
      </g>
     </g>
    </g>
    <g id="ytick_13">
     <g id="line2d_29">
      <g>
       <use xlink:href="#m26f00cc98e" x="61.34293" y="482.63871" style="stroke: #000000; stroke-width: 0.8"/>
      </g>
     </g>
     <g id="text_32">
      <!-- 100 -->
      <g transform="translate(30.483555 487.387246) scale(0.125 -0.125)">
       <use xlink:href="#DejaVuSans-14"/>
       <use xlink:href="#DejaVuSans-13" transform="translate(63.625 0)"/>
       <use xlink:href="#DejaVuSans-13" transform="translate(127.25 0)"/>
      </g>
     </g>
    </g>
    <g id="ytick_14">
     <g id="line2d_30">
      <g>
       <use xlink:href="#m26f00cc98e" x="61.34293" y="456.029984" style="stroke: #000000; stroke-width: 0.8"/>
      </g>
     </g>
     <g id="text_33">
      <!-- 120 -->
      <g transform="translate(30.483555 460.778519) scale(0.125 -0.125)">
       <use xlink:href="#DejaVuSans-14"/>
       <use xlink:href="#DejaVuSans-15" transform="translate(63.625 0)"/>
       <use xlink:href="#DejaVuSans-13" transform="translate(127.25 0)"/>
      </g>
     </g>
    </g>
    <g id="ytick_15">
     <g id="line2d_31">
      <g>
       <use xlink:href="#m26f00cc98e" x="61.34293" y="429.421258" style="stroke: #000000; stroke-width: 0.8"/>
      </g>
     </g>
     <g id="text_34">
      <!-- 140 -->
      <g transform="translate(30.483555 434.169793) scale(0.125 -0.125)">
       <use xlink:href="#DejaVuSans-14"/>
       <use xlink:href="#DejaVuSans-17" transform="translate(63.625 0)"/>
       <use xlink:href="#DejaVuSans-13" transform="translate(127.25 0)"/>
      </g>
     </g>
    </g>
    <g id="ytick_16">
     <g id="line2d_32">
      <g>
       <use xlink:href="#m26f00cc98e" x="61.34293" y="402.812532" style="stroke: #000000; stroke-width: 0.8"/>
      </g>
     </g>
     <g id="text_35">
      <!-- 160 -->
      <g transform="translate(30.483555 407.561067) scale(0.125 -0.125)">
       <use xlink:href="#DejaVuSans-14"/>
       <use xlink:href="#DejaVuSans-19" transform="translate(63.625 0)"/>
       <use xlink:href="#DejaVuSans-13" transform="translate(127.25 0)"/>
      </g>
     </g>
    </g>
    <g id="ytick_17">
     <g id="line2d_33">
      <g>
       <use xlink:href="#m26f00cc98e" x="61.34293" y="376.203806" style="stroke: #000000; stroke-width: 0.8"/>
      </g>
     </g>
     <g id="text_36">
      <!-- 180 -->
      <g transform="translate(30.483555 380.952341) scale(0.125 -0.125)">
       <use xlink:href="#DejaVuSans-14"/>
       <use xlink:href="#DejaVuSans-1b" transform="translate(63.625 0)"/>
       <use xlink:href="#DejaVuSans-13" transform="translate(127.25 0)"/>
      </g>
     </g>
    </g>
    <g id="ytick_18">
     <g id="line2d_34">
      <g>
       <use xlink:href="#m26f00cc98e" x="61.34293" y="349.59508" style="stroke: #000000; stroke-width: 0.8"/>
      </g>
     </g>
     <g id="text_37">
      <!-- 200 -->
      <g transform="translate(30.483555 354.343615) scale(0.125 -0.125)">
       <use xlink:href="#DejaVuSans-15"/>
       <use xlink:href="#DejaVuSans-13" transform="translate(63.625 0)"/>
       <use xlink:href="#DejaVuSans-13" transform="translate(127.25 0)"/>
      </g>
     </g>
    </g>
    <g id="text_38">
     <!-- Độ sáng Y -->
     <g transform="translate(23.480625 480.849482) rotate(-90) scale(0.125 -0.125)">
      <use xlink:href="#DejaVuSans-d2"/>
      <use xlink:href="#DejaVuSans-9d6" transform="translate(77.484375 0)"/>
      <use xlink:href="#DejaVuSans-3" transform="translate(138.671875 0)"/>
      <use xlink:href="#DejaVuSans-56" transform="translate(170.453125 0)"/>
      <use xlink:href="#DejaVuSans-a3" transform="translate(222.546875 0)"/>
      <use xlink:href="#DejaVuSans-51" transform="translate(283.828125 0)"/>
      <use xlink:href="#DejaVuSans-4a" transform="translate(347.203125 0)"/>
      <use xlink:href="#DejaVuSans-3" transform="translate(410.6875 0)"/>
      <use xlink:href="#DejaVuSans-3c" transform="translate(442.46875 0)"/>
     </g>
    </g>
   </g>
   <g id="line2d_35">
    <path d="M 61.34293 549.160526 
L 652.514367 549.160526 
L 652.514367 349.59508 
L 698.076713 349.59508 
L 698.076713 549.160526 
L 742.5 549.160526 
L 742.5 549.160526 
" clip-path="url(#p264235fd01)" style="fill: none; stroke: #0b0b0b; stroke-width: 1.6; stroke-linecap: square"/>
   </g>
   <g id="line2d_36">
    <path d="M 61.34293 549.160526 
L 81.845985 549.160526 
L 84.124103 546.350968 
L 127.408331 546.350968 
L 129.686448 549.160526 
L 138.798918 549.160526 
L 141.077035 545.414448 
L 184.361263 545.414448 
L 186.639381 549.160526 
L 195.75185 549.160526 
L 198.029967 544.165756 
L 241.314196 544.165756 
L 243.592313 549.160526 
L 252.704782 549.160526 
L 254.9829 542.500833 
L 298.267128 542.500833 
L 300.545245 549.160526 
L 309.657715 549.160526 
L 311.935832 540.280935 
L 355.22006 540.280935 
L 357.498178 549.160526 
L 366.610647 549.160526 
L 368.888764 537.321072 
L 412.172993 537.321072 
L 414.45111 549.160526 
L 423.563579 549.160526 
L 425.841696 533.374587 
L 469.125925 533.374587 
L 471.404042 549.160526 
L 480.516511 549.160526 
L 482.794629 528.112608 
L 526.078857 528.112608 
L 528.356975 549.160526 
L 537.469444 549.160526 
L 539.747561 521.096635 
L 583.03179 521.096635 
L 585.309907 549.160526 
L 594.422376 549.160526 
L 596.700493 511.742005 
L 639.984722 511.742005 
L 642.262839 549.160526 
L 651.375308 549.160526 
L 653.653426 499.269164 
L 696.937654 499.269164 
L 699.215771 549.160526 
L 742.5 549.160526 
L 742.5 549.160526 
" clip-path="url(#p264235fd01)" style="fill: none; stroke: #eb6834; stroke-width: 2.4; stroke-linecap: square"/>
   </g>
   <g id="patch_12">
    <path d="M 61.34293 569.11707 
L 61.34293 329.638535 
" style="fill: none; stroke: #000000; stroke-width: 0.8; stroke-linejoin: miter; stroke-linecap: square"/>
   </g>
   <g id="patch_13">
    <path d="M 742.5 569.11707 
L 742.5 329.638535 
" style="fill: none; stroke: #000000; stroke-width: 0.8; stroke-linejoin: miter; stroke-linecap: square"/>
   </g>
   <g id="patch_14">
    <path d="M 61.34293 569.11707 
L 742.5 569.11707 
" style="fill: none; stroke: #000000; stroke-width: 0.8; stroke-linejoin: miter; stroke-linecap: square"/>
   </g>
   <g id="patch_15">
    <path d="M 61.34293 329.638535 
L 742.5 329.638535 
" style="fill: none; stroke: #000000; stroke-width: 0.8; stroke-linejoin: miter; stroke-linecap: square"/>
   </g>
   <g id="text_39">
    <!-- (b) Vật nhanh, v = 25 px/khung: các vị trí cũ tách rời → bóng ma (ghosting) -->
    <g transform="translate(61.34293 323.638535) scale(0.125 -0.125)">
     <defs>
      <path id="DejaVuSans-9da" d="M 1506 5119 
L 2387 3950 
L 1909 3950 
L 890 5119 
L 1506 5119 
z
M 2625 3106 
L 2625 3478 
Q 2816 3337 2953 3270 
Q 3091 3203 3187 3203 
Q 3331 3203 3403 3289 
Q 3475 3375 3475 3543 
Q 3475 3643 3451 3740 
Q 3428 3837 3381 3934 
L 3797 3934 
Q 3828 3815 3843 3709 
Q 3859 3603 3859 3509 
Q 3859 3128 3723 2948 
Q 3588 2768 3297 2768 
Q 3147 2768 2983 2851 
Q 2819 2934 2625 3106 
z
M 1975 3097 
Q 1513 3097 1244 2736 
Q 975 2375 975 1747 
Q 975 1119 1242 758 
Q 1510 397 1975 397 
Q 2435 397 2703 759 
Q 2972 1122 2972 1747 
Q 2972 2369 2703 2733 
Q 2435 3097 1975 3097 
z
M 1975 3584 
Q 2725 3584 3153 3096 
Q 3582 2609 3582 1747 
Q 3582 888 3153 398 
Q 2725 -91 1975 -91 
Q 1222 -91 795 398 
Q 369 888 369 1747 
Q 369 2609 795 3096 
Q 1222 3584 1975 3584 
z
" transform="scale(0.015625)"/>
      <path id="DejaVuSans-b5" d="M 1959 3097 
Q 1497 3097 1228 2736 
Q 959 2375 959 1747 
Q 959 1119 1226 758 
Q 1494 397 1959 397 
Q 2419 397 2687 759 
Q 2956 1122 2956 1747 
Q 2956 2369 2687 2733 
Q 2419 3097 1959 3097 
z
M 1959 3584 
Q 2709 3584 3137 3096 
Q 3566 2609 3566 1747 
Q 3566 888 3137 398 
Q 2709 -91 1959 -91 
Q 1206 -91 779 398 
Q 353 888 353 1747 
Q 353 2609 779 3096 
Q 1206 3584 1959 3584 
z
M 2393 5119 
L 3015 5119 
L 1997 3944 
L 1518 3944 
L 2393 5119 
z
" transform="scale(0.015625)"/>
     </defs>
     <use xlink:href="#DejaVuSans-b"/>
     <use xlink:href="#DejaVuSans-45" transform="translate(39.015625 0)"/>
     <use xlink:href="#DejaVuSans-c" transform="translate(102.5 0)"/>
     <use xlink:href="#DejaVuSans-3" transform="translate(141.515625 0)"/>
     <use xlink:href="#DejaVuSans-39" transform="translate(173.296875 0)"/>
     <use xlink:href="#DejaVuSans-9aa" transform="translate(241.703125 0)"/>
     <use xlink:href="#DejaVuSans-57" transform="translate(302.984375 0)"/>
     <use xlink:href="#DejaVuSans-3" transform="translate(342.1875 0)"/>
     <use xlink:href="#DejaVuSans-51" transform="translate(373.96875 0)"/>
     <use xlink:href="#DejaVuSans-4b" transform="translate(437.34375 0)"/>
     <use xlink:href="#DejaVuSans-44" transform="translate(500.71875 0)"/>
     <use xlink:href="#DejaVuSans-51" transform="translate(562 0)"/>
     <use xlink:href="#DejaVuSans-4b" transform="translate(625.375 0)"/>
     <use xlink:href="#DejaVuSans-f" transform="translate(688.75 0)"/>
     <use xlink:href="#DejaVuSans-3" transform="translate(720.53125 0)"/>
     <use xlink:href="#DejaVuSans-59" transform="translate(752.3125 0)"/>
     <use xlink:href="#DejaVuSans-3" transform="translate(811.5 0)"/>
     <use xlink:href="#DejaVuSans-20" transform="translate(843.28125 0)"/>
     <use xlink:href="#DejaVuSans-3" transform="translate(927.078125 0)"/>
     <use xlink:href="#DejaVuSans-15" transform="translate(958.859375 0)"/>
     <use xlink:href="#DejaVuSans-18" transform="translate(1022.484375 0)"/>
     <use xlink:href="#DejaVuSans-3" transform="translate(1086.109375 0)"/>
     <use xlink:href="#DejaVuSans-53" transform="translate(1117.890625 0)"/>
     <use xlink:href="#DejaVuSans-5b" transform="translate(1181.375 0)"/>
     <use xlink:href="#DejaVuSans-12" transform="translate(1240.5625 0)"/>
     <use xlink:href="#DejaVuSans-4e" transform="translate(1274.25 0)"/>
     <use xlink:href="#DejaVuSans-4b" transform="translate(1332.15625 0)"/>
     <use xlink:href="#DejaVuSans-58" transform="translate(1395.53125 0)"/>
     <use xlink:href="#DejaVuSans-51" transform="translate(1458.90625 0)"/>
     <use xlink:href="#DejaVuSans-4a" transform="translate(1522.28125 0)"/>
     <use xlink:href="#DejaVuSans-1d" transform="translate(1585.765625 0)"/>
     <use xlink:href="#DejaVuSans-3" transform="translate(1619.453125 0)"/>
     <use xlink:href="#DejaVuSans-46" transform="translate(1651.234375 0)"/>
     <use xlink:href="#DejaVuSans-a3" transform="translate(1706.21875 0)"/>
     <use xlink:href="#DejaVuSans-46" transform="translate(1767.5 0)"/>
     <use xlink:href="#DejaVuSans-3" transform="translate(1822.484375 0)"/>
     <use xlink:href="#DejaVuSans-59" transform="translate(1854.265625 0)"/>
     <use xlink:href="#DejaVuSans-9c8" transform="translate(1913.453125 0)"/>
     <use xlink:href="#DejaVuSans-3" transform="translate(1941.234375 0)"/>
     <use xlink:href="#DejaVuSans-57" transform="translate(1973.015625 0)"/>
     <use xlink:href="#DejaVuSans-55" transform="translate(2012.21875 0)"/>
     <use xlink:href="#DejaVuSans-af" transform="translate(2053.328125 0)"/>
     <use xlink:href="#DejaVuSans-3" transform="translate(2081.109375 0)"/>
     <use xlink:href="#DejaVuSans-46" transform="translate(2112.890625 0)"/>
     <use xlink:href="#DejaVuSans-12b" transform="translate(2167.875 0)"/>
     <use xlink:href="#DejaVuSans-3" transform="translate(2231.25 0)"/>
     <use xlink:href="#DejaVuSans-57" transform="translate(2263.03125 0)"/>
     <use xlink:href="#DejaVuSans-a3" transform="translate(2302.234375 0)"/>
     <use xlink:href="#DejaVuSans-46" transform="translate(2363.515625 0)"/>
     <use xlink:href="#DejaVuSans-4b" transform="translate(2418.5 0)"/>
     <use xlink:href="#DejaVuSans-3" transform="translate(2481.875 0)"/>
     <use xlink:href="#DejaVuSans-55" transform="translate(2513.65625 0)"/>
     <use xlink:href="#DejaVuSans-9da" transform="translate(2554.765625 0)"/>
     <use xlink:href="#DejaVuSans-4c" transform="translate(2615.953125 0)"/>
     <use xlink:href="#DejaVuSans-3" transform="translate(2643.734375 0)"/>
     <use xlink:href="#DejaVuSans-c1c" transform="translate(2675.515625 0)"/>
     <use xlink:href="#DejaVuSans-3" transform="translate(2759.3125 0)"/>
     <use xlink:href="#DejaVuSans-45" transform="translate(2791.09375 0)"/>
     <use xlink:href="#DejaVuSans-b5" transform="translate(2854.578125 0)"/>
     <use xlink:href="#DejaVuSans-51" transform="translate(2915.765625 0)"/>
     <use xlink:href="#DejaVuSans-4a" transform="translate(2979.140625 0)"/>
     <use xlink:href="#DejaVuSans-3" transform="translate(3042.625 0)"/>
     <use xlink:href="#DejaVuSans-50" transform="translate(3074.40625 0)"/>
     <use xlink:href="#DejaVuSans-44" transform="translate(3171.8125 0)"/>
     <use xlink:href="#DejaVuSans-3" transform="translate(3233.09375 0)"/>
     <use xlink:href="#DejaVuSans-b" transform="translate(3264.875 0)"/>
     <use xlink:href="#DejaVuSans-4a" transform="translate(3303.890625 0)"/>
     <use xlink:href="#DejaVuSans-4b" transform="translate(3367.375 0)"/>
     <use xlink:href="#DejaVuSans-52" transform="translate(3430.75 0)"/>
     <use xlink:href="#DejaVuSans-56" transform="translate(3491.9375 0)"/>
     <use xlink:href="#DejaVuSans-57" transform="translate(3544.03125 0)"/>
     <use xlink:href="#DejaVuSans-4c" transform="translate(3583.234375 0)"/>
     <use xlink:href="#DejaVuSans-51" transform="translate(3611.015625 0)"/>
     <use xlink:href="#DejaVuSans-4a" transform="translate(3674.390625 0)"/>
     <use xlink:href="#DejaVuSans-c" transform="translate(3737.875 0)"/>
    </g>
   </g>
   <g id="legend_2">
    <g id="line2d_37">
     <path d="M 71.24293 344.598535 
L 76.74293 344.598535 
L 76.74293 344.598535 
L 87.74293 344.598535 
L 87.74293 344.598535 
L 93.24293 344.598535 
" style="fill: none; stroke: #0b0b0b; stroke-width: 1.6; stroke-linecap: square"/>
    </g>
    <g id="text_40">
     <!-- Vị trí thật của vật -->
     <g transform="translate(102.04293 348.448535) scale(0.11 -0.11)">
      <use xlink:href="#DejaVuSans-39"/>
      <use xlink:href="#DejaVuSans-9c8" transform="translate(68.40625 0)"/>
      <use xlink:href="#DejaVuSans-3" transform="translate(96.1875 0)"/>
      <use xlink:href="#DejaVuSans-57" transform="translate(127.96875 0)"/>
      <use xlink:href="#DejaVuSans-55" transform="translate(167.171875 0)"/>
      <use xlink:href="#DejaVuSans-af" transform="translate(208.28125 0)"/>
      <use xlink:href="#DejaVuSans-3" transform="translate(236.0625 0)"/>
      <use xlink:href="#DejaVuSans-57" transform="translate(267.84375 0)"/>
      <use xlink:href="#DejaVuSans-4b" transform="translate(307.046875 0)"/>
      <use xlink:href="#DejaVuSans-9aa" transform="translate(370.421875 0)"/>
      <use xlink:href="#DejaVuSans-57" transform="translate(431.703125 0)"/>
      <use xlink:href="#DejaVuSans-3" transform="translate(470.90625 0)"/>
      <use xlink:href="#DejaVuSans-46" transform="translate(502.6875 0)"/>
      <use xlink:href="#DejaVuSans-9e4" transform="translate(557.671875 0)"/>
      <use xlink:href="#DejaVuSans-44" transform="translate(621.046875 0)"/>
      <use xlink:href="#DejaVuSans-3" transform="translate(682.328125 0)"/>
      <use xlink:href="#DejaVuSans-59" transform="translate(714.109375 0)"/>
      <use xlink:href="#DejaVuSans-9aa" transform="translate(773.296875 0)"/>
      <use xlink:href="#DejaVuSans-57" transform="translate(834.578125 0)"/>
     </g>
    </g>
    <g id="line2d_38">
     <path d="M 71.24293 361.539395 
L 82.24293 361.539395 
L 93.24293 361.539395 
" style="fill: none; stroke: #eb6834; stroke-width: 2.4; stroke-linecap: square"/>
    </g>
    <g id="text_41">
     <!-- Ngõ ra bộ lọc -->
     <g transform="translate(102.04293 365.389395) scale(0.11 -0.11)">
      <use xlink:href="#DejaVuSans-31"/>
      <use xlink:href="#DejaVuSans-4a" transform="translate(74.8125 0)"/>
      <use xlink:href="#DejaVuSans-b7" transform="translate(138.296875 0)"/>
      <use xlink:href="#DejaVuSans-3" transform="translate(199.484375 0)"/>
      <use xlink:href="#DejaVuSans-55" transform="translate(231.265625 0)"/>
      <use xlink:href="#DejaVuSans-44" transform="translate(272.375 0)"/>
      <use xlink:href="#DejaVuSans-3" transform="translate(333.65625 0)"/>
      <use xlink:href="#DejaVuSans-45" transform="translate(365.4375 0)"/>
      <use xlink:href="#DejaVuSans-9d6" transform="translate(428.921875 0)"/>
      <use xlink:href="#DejaVuSans-3" transform="translate(490.109375 0)"/>
      <use xlink:href="#DejaVuSans-4f" transform="translate(521.890625 0)"/>
      <use xlink:href="#DejaVuSans-9ca" transform="translate(549.671875 0)"/>
      <use xlink:href="#DejaVuSans-46" transform="translate(610.859375 0)"/>
     </g>
    </g>
   </g>
   <g id="patch_16">
    <path d="M 293.799814 423.708346 
Q 426.084002 472.058475 557.108081 519.948032 
" style="fill: none; stroke: #000000; stroke-width: 1.2; stroke-linecap: round"/>
    <path d="M 553.577194 516.20867 
L 557.108081 519.948032 
L 551.998059 520.529125 
" style="fill: none; stroke: #000000; stroke-width: 1.2; stroke-linecap: round"/>
   </g>
   <g id="text_42">
    <g id="patch_17">
     <path d="M 149.477621 423.020713 
L 338.476528 423.020713 
L 338.476528 387.975362 
L 149.477621 387.975362 
z
" style="fill: #ffffff; opacity: 0.92"/>
    </g>
    <!-- Các bản sao mờ dần tại vị trí cũ -->
    <g transform="translate(152.467621 401.853751) scale(0.115 -0.115)">
     <defs>
      <path id="DejaVuSans-26" d="M 4122 4306 
L 4122 3641 
Q 3803 3938 3442 4084 
Q 3081 4231 2675 4231 
Q 1875 4231 1450 3742 
Q 1025 3253 1025 2328 
Q 1025 1406 1450 917 
Q 1875 428 2675 428 
Q 3081 428 3442 575 
Q 3803 722 4122 1019 
L 4122 359 
Q 3791 134 3420 21 
Q 3050 -91 2638 -91 
Q 1578 -91 968 557 
Q 359 1206 359 2328 
Q 359 3453 968 4101 
Q 1578 4750 2638 4750 
Q 3056 4750 3426 4639 
Q 3797 4528 4122 4306 
z
" transform="scale(0.015625)"/>
      <path id="DejaVuSans-9a4" d="M 2194 1759 
Q 1497 1759 1228 1600 
Q 959 1441 959 1056 
Q 959 750 1161 570 
Q 1363 391 1709 391 
Q 2188 391 2477 730 
Q 2766 1069 2766 1631 
L 2766 1759 
L 2194 1759 
z
M 3341 1997 
L 3341 0 
L 2766 0 
L 2766 531 
Q 2569 213 2275 61 
Q 1981 -91 1556 -91 
Q 1019 -91 701 211 
Q 384 513 384 1019 
Q 384 1609 779 1909 
Q 1175 2209 1959 2209 
L 2766 2209 
L 2766 2266 
Q 2766 2663 2505 2880 
Q 2244 3097 1772 3097 
Q 1472 3097 1187 3025 
Q 903 2953 641 2809 
L 641 3341 
Q 956 3463 1253 3523 
Q 1550 3584 1831 3584 
Q 2591 3584 2966 3190 
Q 3341 2797 3341 1997 
z
M 2590 5419 
L 3202 4594 
L 2724 4594 
L 2005 5419 
L 2590 5419 
z
M 1556 4778 
L 2144 4778 
L 2803 3947 
L 2369 3947 
L 1850 4503 
L 1331 3947 
L 897 3947 
L 1556 4778 
z
" transform="scale(0.015625)"/>
      <path id="DejaVuSans-99e" d="M 1409 -441 
L 1984 -441 
L 1984 -1172 
L 1409 -1172 
L 1409 -441 
z
M 2194 1759 
Q 1497 1759 1228 1600 
Q 959 1441 959 1056 
Q 959 750 1161 570 
Q 1363 391 1709 391 
Q 2188 391 2477 730 
Q 2766 1069 2766 1631 
L 2766 1759 
L 2194 1759 
z
M 3341 1997 
L 3341 0 
L 2766 0 
L 2766 531 
Q 2569 213 2275 61 
Q 1981 -91 1556 -91 
Q 1019 -91 701 211 
Q 384 513 384 1019 
Q 384 1609 779 1909 
Q 1175 2209 1959 2209 
L 2766 2209 
L 2766 2266 
Q 2766 2663 2505 2880 
Q 2244 3097 1772 3097 
Q 1472 3097 1187 3025 
Q 903 2953 641 2809 
L 641 3341 
Q 956 3463 1253 3523 
Q 1550 3584 1831 3584 
Q 2591 3584 2966 3190 
Q 3341 2797 3341 1997 
z
" transform="scale(0.015625)"/>
     </defs>
     <use xlink:href="#DejaVuSans-26"/>
     <use xlink:href="#DejaVuSans-a3" transform="translate(69.828125 0)"/>
     <use xlink:href="#DejaVuSans-46" transform="translate(131.109375 0)"/>
     <use xlink:href="#DejaVuSans-3" transform="translate(186.09375 0)"/>
     <use xlink:href="#DejaVuSans-45" transform="translate(217.875 0)"/>
     <use xlink:href="#DejaVuSans-9a0" transform="translate(281.359375 0)"/>
     <use xlink:href="#DejaVuSans-51" transform="translate(342.640625 0)"/>
     <use xlink:href="#DejaVuSans-3" transform="translate(406.015625 0)"/>
     <use xlink:href="#DejaVuSans-56" transform="translate(437.796875 0)"/>
     <use xlink:href="#DejaVuSans-44" transform="translate(489.890625 0)"/>
     <use xlink:href="#DejaVuSans-52" transform="translate(551.171875 0)"/>
     <use xlink:href="#DejaVuSans-3" transform="translate(612.359375 0)"/>
     <use xlink:href="#DejaVuSans-50" transform="translate(644.140625 0)"/>
     <use xlink:href="#DejaVuSans-9da" transform="translate(741.546875 0)"/>
     <use xlink:href="#DejaVuSans-3" transform="translate(802.734375 0)"/>
     <use xlink:href="#DejaVuSans-47" transform="translate(834.515625 0)"/>
     <use xlink:href="#DejaVuSans-9a4" transform="translate(898 0)"/>
     <use xlink:href="#DejaVuSans-51" transform="translate(959.28125 0)"/>
     <use xlink:href="#DejaVuSans-3" transform="translate(1022.65625 0)"/>
     <use xlink:href="#DejaVuSans-57" transform="translate(1054.4375 0)"/>
     <use xlink:href="#DejaVuSans-99e" transform="translate(1093.640625 0)"/>
     <use xlink:href="#DejaVuSans-4c" transform="translate(1154.921875 0)"/>
     <use xlink:href="#DejaVuSans-3" transform="translate(1182.703125 0)"/>
     <use xlink:href="#DejaVuSans-59" transform="translate(1214.484375 0)"/>
     <use xlink:href="#DejaVuSans-9c8" transform="translate(1273.671875 0)"/>
     <use xlink:href="#DejaVuSans-3" transform="translate(1301.453125 0)"/>
     <use xlink:href="#DejaVuSans-57" transform="translate(1333.234375 0)"/>
     <use xlink:href="#DejaVuSans-55" transform="translate(1372.4375 0)"/>
     <use xlink:href="#DejaVuSans-af" transform="translate(1413.546875 0)"/>
     <use xlink:href="#DejaVuSans-3" transform="translate(1441.328125 0)"/>
     <use xlink:href="#DejaVuSans-46" transform="translate(1473.109375 0)"/>
     <use xlink:href="#DejaVuSans-12b" transform="translate(1528.09375 0)"/>
    </g>
    <!-- = bóng ma -->
    <g transform="translate(152.467621 416.116895) scale(0.115 -0.115)">
     <use xlink:href="#DejaVuSans-20"/>
     <use xlink:href="#DejaVuSans-3" transform="translate(83.796875 0)"/>
     <use xlink:href="#DejaVuSans-45" transform="translate(115.578125 0)"/>
     <use xlink:href="#DejaVuSans-b5" transform="translate(179.0625 0)"/>
     <use xlink:href="#DejaVuSans-51" transform="translate(240.25 0)"/>
     <use xlink:href="#DejaVuSans-4a" transform="translate(303.625 0)"/>
     <use xlink:href="#DejaVuSans-3" transform="translate(367.109375 0)"/>
     <use xlink:href="#DejaVuSans-50" transform="translate(398.890625 0)"/>
     <use xlink:href="#DejaVuSans-44" transform="translate(496.296875 0)"/>
    </g>
   </g>
   <g id="patch_18">
    <path d="M 617.360942 411.372175 
Q 646.339808 454.490466 674.5703 496.495233 
" style="fill: none; stroke: #000000; stroke-width: 1.2; stroke-linecap: round"/>
    <path d="M 673.913327 491.394411 
L 674.5703 496.495233 
L 670.095458 493.960318 
" style="fill: none; stroke: #000000; stroke-width: 1.2; stroke-linecap: round"/>
   </g>
   <g id="text_43">
    <g id="patch_19">
     <path d="M 525.366975 409.71635 
L 683.777678 409.71635 
L 683.777678 374.971077 
L 525.366975 374.971077 
z
" style="fill: #ffffff; opacity: 0.92"/>
    </g>
    <!-- Vật hiện tại chỉ còn -->
    <g transform="translate(528.356975 388.432591) scale(0.115 -0.115)">
     <defs>
      <path id="DejaVuSans-9c6" d="M 603 3500 
L 1178 3500 
L 1178 0 
L 603 0 
L 603 3500 
z
M 891 3584 
L 891 3584 
z
M 213 5028 
Q 563 5187 891 5187 
Q 1216 5187 1414 5054 
Q 1613 4922 1613 4712 
Q 1613 4522 1338 4319 
L 1200 4219 
Q 1091 4137 1078 4109 
Q 1057 4059 1057 3959 
L 685 3959 
L 685 3997 
Q 685 4122 731 4206 
Q 778 4291 938 4406 
L 1078 4512 
Q 1222 4619 1222 4744 
Q 1222 4809 1125 4865 
Q 1028 4922 807 4922 
Q 525 4922 213 4759 
L 213 5028 
z
" transform="scale(0.015625)"/>
     </defs>
     <use xlink:href="#DejaVuSans-39"/>
     <use xlink:href="#DejaVuSans-9aa" transform="translate(68.40625 0)"/>
     <use xlink:href="#DejaVuSans-57" transform="translate(129.6875 0)"/>
     <use xlink:href="#DejaVuSans-3" transform="translate(168.890625 0)"/>
     <use xlink:href="#DejaVuSans-4b" transform="translate(200.671875 0)"/>
     <use xlink:href="#DejaVuSans-4c" transform="translate(264.046875 0)"/>
     <use xlink:href="#DejaVuSans-9c4" transform="translate(291.828125 0)"/>
     <use xlink:href="#DejaVuSans-51" transform="translate(353.359375 0)"/>
     <use xlink:href="#DejaVuSans-3" transform="translate(416.734375 0)"/>
     <use xlink:href="#DejaVuSans-57" transform="translate(448.515625 0)"/>
     <use xlink:href="#DejaVuSans-99e" transform="translate(487.71875 0)"/>
     <use xlink:href="#DejaVuSans-4c" transform="translate(549 0)"/>
     <use xlink:href="#DejaVuSans-3" transform="translate(576.78125 0)"/>
     <use xlink:href="#DejaVuSans-46" transform="translate(608.5625 0)"/>
     <use xlink:href="#DejaVuSans-4b" transform="translate(663.546875 0)"/>
     <use xlink:href="#DejaVuSans-9c6" transform="translate(726.921875 0)"/>
     <use xlink:href="#DejaVuSans-3" transform="translate(754.703125 0)"/>
     <use xlink:href="#DejaVuSans-46" transform="translate(786.484375 0)"/>
     <use xlink:href="#DejaVuSans-b4" transform="translate(841.46875 0)"/>
     <use xlink:href="#DejaVuSans-51" transform="translate(902.65625 0)"/>
    </g>
    <!-- khoảng 1/4 độ tương phản -->
    <g transform="translate(528.356975 402.812532) scale(0.115 -0.115)">
     <defs>
      <path id="DejaVuSans-d3" d="M 2906 2969 
L 2906 4013 
L 1888 4013 
L 1888 4403 
L 2906 4403 
L 2906 4863 
L 3481 4863 
L 3481 4403 
L 3963 4403 
L 3963 4013 
L 3481 4013 
L 3481 0 
L 2906 0 
L 2906 525 
Q 2725 213 2448 61 
Q 2172 -91 1784 -91 
Q 1150 -91 751 415 
Q 353 922 353 1747 
Q 353 2572 751 3078 
Q 1150 3584 1784 3584 
Q 2172 3584 2448 3432 
Q 2725 3281 2906 2969 
z
M 947 1747 
Q 947 1113 1208 752 
Q 1469 391 1925 391 
Q 2381 391 2643 752 
Q 2906 1113 2906 1747 
Q 2906 2381 2643 2742 
Q 2381 3103 1925 3103 
Q 1469 3103 1208 2742 
Q 947 2381 947 1747 
z
" transform="scale(0.015625)"/>
      <path id="DejaVuSans-163" d="M 2625 3106 
L 2625 3478 
Q 2816 3337 2953 3270 
Q 3091 3203 3187 3203 
Q 3331 3203 3403 3289 
Q 3475 3375 3475 3543 
Q 3475 3643 3451 3740 
Q 3428 3837 3381 3934 
L 3797 3934 
Q 3828 3815 3843 3709 
Q 3859 3603 3859 3509 
Q 3859 3128 3723 2948 
Q 3588 2768 3297 2768 
Q 3147 2768 2983 2851 
Q 2819 2934 2625 3106 
z
M 1975 3097 
Q 1513 3097 1244 2736 
Q 975 2375 975 1747 
Q 975 1119 1242 758 
Q 1510 397 1975 397 
Q 2435 397 2703 759 
Q 2972 1122 2972 1747 
Q 2972 2369 2703 2733 
Q 2435 3097 1975 3097 
z
M 1975 3584 
Q 2725 3584 3153 3096 
Q 3582 2609 3582 1747 
Q 3582 888 3153 398 
Q 2725 -91 1975 -91 
Q 1222 -91 795 398 
Q 369 888 369 1747 
Q 369 2609 795 3096 
Q 1222 3584 1975 3584 
z
" transform="scale(0.015625)"/>
     </defs>
     <use xlink:href="#DejaVuSans-4e"/>
     <use xlink:href="#DejaVuSans-4b" transform="translate(57.90625 0)"/>
     <use xlink:href="#DejaVuSans-52" transform="translate(121.28125 0)"/>
     <use xlink:href="#DejaVuSans-9a0" transform="translate(182.46875 0)"/>
     <use xlink:href="#DejaVuSans-51" transform="translate(243.75 0)"/>
     <use xlink:href="#DejaVuSans-4a" transform="translate(307.125 0)"/>
     <use xlink:href="#DejaVuSans-3" transform="translate(370.609375 0)"/>
     <use xlink:href="#DejaVuSans-14" transform="translate(402.390625 0)"/>
     <use xlink:href="#DejaVuSans-12" transform="translate(466.015625 0)"/>
     <use xlink:href="#DejaVuSans-17" transform="translate(499.703125 0)"/>
     <use xlink:href="#DejaVuSans-3" transform="translate(563.328125 0)"/>
     <use xlink:href="#DejaVuSans-d3" transform="translate(595.109375 0)"/>
     <use xlink:href="#DejaVuSans-9d6" transform="translate(658.59375 0)"/>
     <use xlink:href="#DejaVuSans-3" transform="translate(719.78125 0)"/>
     <use xlink:href="#DejaVuSans-57" transform="translate(751.5625 0)"/>
     <use xlink:href="#DejaVuSans-172" transform="translate(790.765625 0)"/>
     <use xlink:href="#DejaVuSans-163" transform="translate(854.140625 0)"/>
     <use xlink:href="#DejaVuSans-51" transform="translate(915.328125 0)"/>
     <use xlink:href="#DejaVuSans-4a" transform="translate(978.703125 0)"/>
     <use xlink:href="#DejaVuSans-3" transform="translate(1042.1875 0)"/>
     <use xlink:href="#DejaVuSans-53" transform="translate(1073.96875 0)"/>
     <use xlink:href="#DejaVuSans-4b" transform="translate(1137.453125 0)"/>
     <use xlink:href="#DejaVuSans-9a0" transform="translate(1200.828125 0)"/>
     <use xlink:href="#DejaVuSans-51" transform="translate(1262.109375 0)"/>
    </g>
   </g>
  </g>
 </g>
 <defs>
  <clipPath id="p9dc8bb543b">
   <rect x="61.34293" y="29.58" width="681.15707" height="239.478535"/>
  </clipPath>
  <clipPath id="p264235fd01">
   <rect x="61.34293" y="329.638535" width="681.15707" height="239.478535"/>
  </clipPath>
 </defs>
</svg>
